<?xml version="1.0" standalone="yes"?>

<svg version="1.1" viewBox="0.0 0.0 751.8845144356956 706.3648293963255" fill="none" stroke="none" stroke-linecap="square" stroke-miterlimit="10" xmlns="http://www.w3.org/2000/svg" xmlns:xlink="http://www.w3.org/1999/xlink"><clipPath id="p.0"><path d="m0 0l751.8845 0l0 706.3648l-751.8845 0l0 -706.3648z" clip-rule="nonzero"></path></clipPath><g clip-path="url(#p.0)"><path fill="#000000" fill-opacity="0.0" d="m0 0l751.8845 0l0 706.3648l-751.8845 0z" fill-rule="evenodd"></path><path fill="#ffffff" d="m10.094488 -4.3727036l709.3858 0l0 706.3622l-709.3858 0z" fill-rule="evenodd"></path><path fill="#000000" fill-opacity="0.0" d="m305.75854 30.013123l0 656.9134" fill-rule="evenodd"></path><path stroke="#000000" stroke-width="4.0" stroke-linejoin="round" stroke-linecap="butt" d="m305.75854 30.013123l0 656.9134" fill-rule="evenodd"></path><path fill="#000000" fill-opacity="0.0" d="m443.27216 30.013123l0 656.9134" fill-rule="evenodd"></path><path stroke="#000000" stroke-width="4.0" stroke-linejoin="round" stroke-linecap="butt" d="m443.27216 30.013123l0 656.9134" fill-rule="evenodd"></path><path fill="#000000" fill-opacity="0.0" d="m580.7858 30.013123l0 656.9134" fill-rule="evenodd"></path><path stroke="#000000" stroke-width="4.0" stroke-linejoin="round" stroke-linecap="butt" d="m580.7858 30.013123l0 656.9134" fill-rule="evenodd"></path><path fill="#cfe2f3" d="m341.1496 42.839893l0 0c0 -17.551346 14.22818 -31.779526 31.779541 -31.779526c17.55133 0 31.77951 14.22818 31.77951 31.779526c0 17.55135 -14.22818 31.77953 -31.77951 31.77953c-17.551361 0 -31.779541 -14.22818 -31.779541 -31.77953z" fill-rule="evenodd"></path><path fill="#a5b4c2" d="m359.43756 33.33546c0 -1.8282642 1.4820862 -3.3103657 3.3103638 -3.3103657c1.8282471 0 3.3103638 1.4821014 3.3103638 3.3103657c0 1.8282661 -1.4821167 3.3103676 -3.3103638 3.3103676c-1.8282776 0 -3.3103638 -1.4821014 -3.3103638 -3.3103676m20.362427 0c0 -1.8282642 1.4820862 -3.3103657 3.3103638 -3.3103657c1.8282776 0 3.3103638 1.4821014 3.3103638 3.3103657c0 1.8282661 -1.4820862 3.3103676 -3.3103638 3.3103676c-1.8282776 0 -3.3103638 -1.4821014 -3.3103638 -3.3103676" fill-rule="evenodd"></path><path fill="#000000" fill-opacity="0.0" d="m355.7044 56.699158q17.224731 11.829613 34.40921 0" fill-rule="evenodd"></path><path fill="#000000" fill-opacity="0.0" d="m341.1496 42.839893l0 0c0 -17.551346 14.22818 -31.779526 31.779541 -31.779526c17.55133 0 31.77951 14.22818 31.77951 31.779526c0 17.55135 -14.22818 31.77953 -31.77951 31.77953c-17.551361 0 -31.779541 -14.22818 -31.779541 -31.77953z" fill-rule="evenodd"></path><path stroke="#000000" stroke-width="1.0" stroke-linejoin="round" stroke-linecap="butt" d="m359.43756 33.33546c0 -1.8282642 1.4820862 -3.3103657 3.3103638 -3.3103657c1.8282471 0 3.3103638 1.4821014 3.3103638 3.3103657c0 1.8282661 -1.4821167 3.3103676 -3.3103638 3.3103676c-1.8282776 0 -3.3103638 -1.4821014 -3.3103638 -3.3103676m20.362427 0c0 -1.8282642 1.4820862 -3.3103657 3.3103638 -3.3103657c1.8282776 0 3.3103638 1.4821014 3.3103638 3.3103657c0 1.8282661 -1.4820862 3.3103676 -3.3103638 3.3103676c-1.8282776 0 -3.3103638 -1.4821014 -3.3103638 -3.3103676" fill-rule="evenodd"></path><path stroke="#000000" stroke-width="1.0" stroke-linejoin="round" stroke-linecap="butt" d="m355.7044 56.699158q17.224731 11.829613 34.40921 0" fill-rule="evenodd"></path><path stroke="#000000" stroke-width="1.0" stroke-linejoin="round" stroke-linecap="butt" d="m341.1496 42.839893l0 0c0 -17.551346 14.22818 -31.779526 31.779541 -31.779526c17.55133 0 31.77951 14.22818 31.77951 31.779526c0 17.55135 -14.22818 31.77953 -31.77951 31.77953c-17.551361 0 -31.779541 -14.22818 -31.779541 -31.77953z" fill-rule="evenodd"></path><path fill="#cfe2f3" d="m477.1496 42.839893l0 0c0 -17.551346 14.22818 -31.779526 31.779541 -31.779526c17.55133 0 31.779541 14.22818 31.779541 31.779526c0 17.55135 -14.22821 31.77953 -31.779541 31.77953c-17.551361 0 -31.779541 -14.22818 -31.779541 -31.77953z" fill-rule="evenodd"></path><path fill="#a5b4c2" d="m495.43756 33.33546c0 -1.8282642 1.4820862 -3.3103657 3.3103638 -3.3103657c1.8282471 0 3.3103638 1.4821014 3.3103638 3.3103657c0 1.8282661 -1.4821167 3.3103676 -3.3103638 3.3103676c-1.8282776 0 -3.3103638 -1.4821014 -3.3103638 -3.3103676m20.362427 0c0 -1.8282642 1.4821167 -3.3103657 3.3103638 -3.3103657c1.8282471 0 3.3103638 1.4821014 3.3103638 3.3103657c0 1.8282661 -1.4821167 3.3103676 -3.3103638 3.3103676c-1.8282471 0 -3.3103638 -1.4821014 -3.3103638 -3.3103676" fill-rule="evenodd"></path><path fill="#000000" fill-opacity="0.0" d="m491.7044 56.699158q17.224731 11.829613 34.40924 0" fill-rule="evenodd"></path><path fill="#000000" fill-opacity="0.0" d="m477.1496 42.839893l0 0c0 -17.551346 14.22818 -31.779526 31.779541 -31.779526c17.55133 0 31.779541 14.22818 31.779541 31.779526c0 17.55135 -14.22821 31.77953 -31.779541 31.77953c-17.551361 0 -31.779541 -14.22818 -31.779541 -31.77953z" fill-rule="evenodd"></path><path stroke="#000000" stroke-width="1.0" stroke-linejoin="round" stroke-linecap="butt" d="m495.43756 33.33546c0 -1.8282642 1.4820862 -3.3103657 3.3103638 -3.3103657c1.8282471 0 3.3103638 1.4821014 3.3103638 3.3103657c0 1.8282661 -1.4821167 3.3103676 -3.3103638 3.3103676c-1.8282776 0 -3.3103638 -1.4821014 -3.3103638 -3.3103676m20.362427 0c0 -1.8282642 1.4821167 -3.3103657 3.3103638 -3.3103657c1.8282471 0 3.3103638 1.4821014 3.3103638 3.3103657c0 1.8282661 -1.4821167 3.3103676 -3.3103638 3.3103676c-1.8282471 0 -3.3103638 -1.4821014 -3.3103638 -3.3103676" fill-rule="evenodd"></path><path stroke="#000000" stroke-width="1.0" stroke-linejoin="round" stroke-linecap="butt" d="m491.7044 56.699158q17.224731 11.829613 34.40924 0" fill-rule="evenodd"></path><path stroke="#000000" stroke-width="1.0" stroke-linejoin="round" stroke-linecap="butt" d="m477.1496 42.839893l0 0c0 -17.551346 14.22818 -31.779526 31.779541 -31.779526c17.55133 0 31.779541 14.22818 31.779541 31.779526c0 17.55135 -14.22821 31.77953 -31.779541 31.77953c-17.551361 0 -31.779541 -14.22818 -31.779541 -31.77953z" fill-rule="evenodd"></path><path fill="#cfe2f3" d="m613.1496 42.839893l0 0c0 -17.551346 14.22821 -31.779526 31.779541 -31.779526c17.55133 0 31.779541 14.22818 31.779541 31.779526c0 17.55135 -14.22821 31.77953 -31.779541 31.77953c-17.55133 0 -31.779541 -14.22818 -31.779541 -31.77953z" fill-rule="evenodd"></path><path fill="#a5b4c2" d="m631.43756 33.33546c0 -1.8282642 1.4821167 -3.3103657 3.3103638 -3.3103657c1.8282471 0 3.3103638 1.4821014 3.3103638 3.3103657c0 1.8282661 -1.4821167 3.3103676 -3.3103638 3.3103676c-1.8282471 0 -3.3103638 -1.4821014 -3.3103638 -3.3103676m20.362427 0c0 -1.8282642 1.4821167 -3.3103657 3.3103638 -3.3103657c1.8282471 0 3.3103638 1.4821014 3.3103638 3.3103657c0 1.8282661 -1.4821167 3.3103676 -3.3103638 3.3103676c-1.8282471 0 -3.3103638 -1.4821014 -3.3103638 -3.3103676" fill-rule="evenodd"></path><path fill="#000000" fill-opacity="0.0" d="m627.7044 56.699158q17.224731 11.829613 34.40924 0" fill-rule="evenodd"></path><path fill="#000000" fill-opacity="0.0" d="m613.1496 42.839893l0 0c0 -17.551346 14.22821 -31.779526 31.779541 -31.779526c17.55133 0 31.779541 14.22818 31.779541 31.779526c0 17.55135 -14.22821 31.77953 -31.779541 31.77953c-17.55133 0 -31.779541 -14.22818 -31.779541 -31.77953z" fill-rule="evenodd"></path><path stroke="#000000" stroke-width="1.0" stroke-linejoin="round" stroke-linecap="butt" d="m631.43756 33.33546c0 -1.8282642 1.4821167 -3.3103657 3.3103638 -3.3103657c1.8282471 0 3.3103638 1.4821014 3.3103638 3.3103657c0 1.8282661 -1.4821167 3.3103676 -3.3103638 3.3103676c-1.8282471 0 -3.3103638 -1.4821014 -3.3103638 -3.3103676m20.362427 0c0 -1.8282642 1.4821167 -3.3103657 3.3103638 -3.3103657c1.8282471 0 3.3103638 1.4821014 3.3103638 3.3103657c0 1.8282661 -1.4821167 3.3103676 -3.3103638 3.3103676c-1.8282471 0 -3.3103638 -1.4821014 -3.3103638 -3.3103676" fill-rule="evenodd"></path><path stroke="#000000" stroke-width="1.0" stroke-linejoin="round" stroke-linecap="butt" d="m627.7044 56.699158q17.224731 11.829613 34.40924 0" fill-rule="evenodd"></path><path stroke="#000000" stroke-width="1.0" stroke-linejoin="round" stroke-linecap="butt" d="m613.1496 42.839893l0 0c0 -17.551346 14.22821 -31.779526 31.779541 -31.779526c17.55133 0 31.779541 14.22818 31.779541 31.779526c0 17.55135 -14.22821 31.77953 -31.779541 31.77953c-17.55133 0 -31.779541 -14.22818 -31.779541 -31.77953z" fill-rule="evenodd"></path><path fill="#000000" fill-opacity="0.0" d="m29.267717 162.06036l263.37006 0l0 76.69292l-263.37006 0z" fill-rule="evenodd"></path><path fill="#000000" d="m41.40834 209.46036l0 -28.640625l12.703125 0q3.828125 0 5.8125 0.78125q2.0 0.765625 3.1875 2.71875q1.1875 1.953125 1.1875 4.3125q0 3.046875 -1.96875 5.140625q-1.96875 2.09375 -6.09375 2.65625q1.5 0.71875 2.28125 1.421875q1.671875 1.53125 3.15625 3.8125l4.96875 7.796875l-4.765625 0l-3.78125 -5.953125q-1.65625 -2.578125 -2.734375 -3.9375q-1.078125 -1.375 -1.9375 -1.921875q-0.84375 -0.546875 -1.71875 -0.765625q-0.640625 -0.140625 -2.109375 -0.140625l-4.390625 0l0 12.71875l-3.796875 0zm3.796875 -16.0l8.140625 0q2.59375 0 4.0625 -0.53125q1.46875 -0.546875 2.21875 -1.71875q0.765625 -1.1875 0.765625 -2.578125q0 -2.03125 -1.46875 -3.328125q-1.46875 -1.3125 -4.65625 -1.3125l-9.0625 0l0 9.46875zm23.277344 5.625q0 -5.765625 3.203125 -8.53125q2.671875 -2.3125 6.53125 -2.3125q4.265625 0 6.984375 2.8125q2.71875 2.796875 2.71875 7.734375q0 4.015625 -1.203125 6.3125q-1.203125 2.28125 -3.5 3.5625q-2.296875 1.265625 -5.0 1.265625q-4.359375 0 -7.046875 -2.796875q-2.6875 -2.796875 -2.6875 -8.046875zm3.609375 0q0 3.984375 1.734375 5.96875q1.75 1.984375 4.390625 1.984375q2.609375 0 4.34375 -1.984375q1.75 -2.0 1.75 -6.078125q0 -3.859375 -1.75 -5.828125q-1.75 -1.984375 -4.34375 -1.984375q-2.640625 0 -4.390625 1.96875q-1.734375 1.96875 -1.734375 5.953125zm18.636719 0q0 -5.765625 3.203125 -8.53125q2.671875 -2.3125 6.53125 -2.3125q4.265625 0 6.984375 2.8125q2.71875 2.796875 2.71875 7.734375q0 4.015625 -1.203125 6.3125q-1.203125 2.28125 -3.5 3.5625q-2.296875 1.265625 -5.0 1.265625q-4.359375 0 -7.046875 -2.796875q-2.6875 -2.796875 -2.6875 -8.046875zm3.609375 0q0 3.984375 1.734375 5.96875q1.75 1.984375 4.390625 1.984375q2.609375 0 4.34375 -1.984375q1.75 -2.0 1.75 -6.078125q0 -3.859375 -1.75 -5.828125q-1.75 -1.984375 -4.34375 -1.984375q-2.640625 0 -4.390625 1.96875q-1.734375 1.96875 -1.734375 5.953125zm19.949219 10.375l0 -20.75l3.140625 0l0 2.921875q0.984375 -1.53125 2.59375 -2.453125q1.625 -0.9375 3.703125 -0.9375q2.296875 0 3.765625 0.96875q1.484375 0.953125 2.09375 2.671875q2.453125 -3.640625 6.40625 -3.640625q3.078125 0 4.734375 1.71875q1.671875 1.703125 1.671875 5.265625l0 14.234375l-3.5 0l0 -13.0625q0 -2.109375 -0.34375 -3.03125q-0.34375 -0.9375 -1.25 -1.5q-0.890625 -0.578125 -2.09375 -0.578125q-2.1875 0 -3.640625 1.46875q-1.4375 1.453125 -1.4375 4.65625l0 12.046875l-3.515625 0l0 -13.484375q0 -2.34375 -0.859375 -3.515625q-0.859375 -1.171875 -2.8125 -1.171875q-1.484375 0 -2.75 0.78125q-1.265625 0.78125 -1.828125 2.296875q-0.5625 1.5 -0.5625 4.328125l0 10.765625l-3.515625 0zm56.69922 0l-3.515625 0l0 -22.40625q-1.265625 1.21875 -3.328125 2.4375q-2.0625 1.203125 -3.703125 1.796875l0 -3.390625q2.953125 -1.390625 5.15625 -3.359375q2.203125 -1.96875 3.125 -3.828125l2.265625 0l0 28.75z" fill-rule="nonzero"></path><path fill="#000000" fill-opacity="0.0" d="m29.267717 272.06036l263.37006 0l0 76.69293l-263.37006 0z" fill-rule="evenodd"></path><path fill="#000000" d="m41.40834 319.46036l0 -28.640625l12.703125 0q3.828125 0 5.8125 0.78125q2.0 0.765625 3.1875 2.71875q1.1875 1.953125 1.1875 4.3125q0 3.046875 -1.96875 5.140625q-1.96875 2.09375 -6.09375 2.65625q1.5 0.71875 2.28125 1.421875q1.671875 1.53125 3.15625 3.8125l4.96875 7.796875l-4.765625 0l-3.78125 -5.953125q-1.65625 -2.578125 -2.734375 -3.9375q-1.078125 -1.375 -1.9375 -1.921875q-0.84375 -0.546875 -1.71875 -0.765625q-0.640625 -0.140625 -2.109375 -0.140625l-4.390625 0l0 12.71875l-3.796875 0zm3.796875 -16.0l8.140625 0q2.59375 0 4.0625 -0.53125q1.46875 -0.546875 2.21875 -1.71875q0.765625 -1.1875 0.765625 -2.578125q0 -2.03125 -1.46875 -3.328125q-1.46875 -1.3125 -4.65625 -1.3125l-9.0625 0l0 9.46875zm23.277344 5.625q0 -5.765625 3.203125 -8.53125q2.671875 -2.3125 6.53125 -2.3125q4.265625 0 6.984375 2.8125q2.71875 2.796875 2.71875 7.734375q0 4.015625 -1.203125 6.3125q-1.203125 2.28125 -3.5 3.5625q-2.296875 1.265625 -5.0 1.265625q-4.359375 0 -7.046875 -2.796875q-2.6875 -2.796875 -2.6875 -8.046875zm3.609375 0q0 3.984375 1.734375 5.96875q1.75 1.984375 4.390625 1.984375q2.609375 0 4.34375 -1.984375q1.75 -2.0 1.75 -6.078125q0 -3.859375 -1.75 -5.828125q-1.75 -1.984375 -4.34375 -1.984375q-2.640625 0 -4.390625 1.96875q-1.734375 1.96875 -1.734375 5.953125zm18.636719 0q0 -5.765625 3.203125 -8.53125q2.671875 -2.3125 6.53125 -2.3125q4.265625 0 6.984375 2.8125q2.71875 2.796875 2.71875 7.734375q0 4.015625 -1.203125 6.3125q-1.203125 2.28125 -3.5 3.5625q-2.296875 1.265625 -5.0 1.265625q-4.359375 0 -7.046875 -2.796875q-2.6875 -2.796875 -2.6875 -8.046875zm3.609375 0q0 3.984375 1.734375 5.96875q1.75 1.984375 4.390625 1.984375q2.609375 0 4.34375 -1.984375q1.75 -2.0 1.75 -6.078125q0 -3.859375 -1.75 -5.828125q-1.75 -1.984375 -4.34375 -1.984375q-2.640625 0 -4.390625 1.96875q-1.734375 1.96875 -1.734375 5.953125zm19.949219 10.375l0 -20.75l3.140625 0l0 2.921875q0.984375 -1.53125 2.59375 -2.453125q1.625 -0.9375 3.703125 -0.9375q2.296875 0 3.765625 0.96875q1.484375 0.953125 2.09375 2.671875q2.453125 -3.640625 6.40625 -3.640625q3.078125 0 4.734375 1.71875q1.671875 1.703125 1.671875 5.265625l0 14.234375l-3.5 0l0 -13.0625q0 -2.109375 -0.34375 -3.03125q-0.34375 -0.9375 -1.25 -1.5q-0.890625 -0.578125 -2.09375 -0.578125q-2.1875 0 -3.640625 1.46875q-1.4375 1.453125 -1.4375 4.65625l0 12.046875l-3.515625 0l0 -13.484375q0 -2.34375 -0.859375 -3.515625q-0.859375 -1.171875 -2.8125 -1.171875q-1.484375 0 -2.75 0.78125q-1.265625 0.78125 -1.828125 2.296875q-0.5625 1.5 -0.5625 4.328125l0 10.765625l-3.515625 0zm61.933594 -3.375l0 3.375l-18.921875 0q-0.046875 -1.265625 0.40625 -2.4375q0.71875 -1.9375 2.3125 -3.8125q1.59375 -1.875 4.59375 -4.34375q4.671875 -3.828125 6.3125 -6.0625q1.640625 -2.234375 1.640625 -4.21875q0 -2.09375 -1.5 -3.53125q-1.484375 -1.4375 -3.890625 -1.4375q-2.53125 0 -4.0625 1.53125q-1.515625 1.515625 -1.546875 4.21875l-3.609375 -0.375q0.375 -4.046875 2.796875 -6.15625q2.421875 -2.125 6.5 -2.125q4.125 0 6.515625 2.28125q2.40625 2.28125 2.40625 5.671875q0 1.71875 -0.703125 3.375q-0.703125 1.65625 -2.328125 3.5q-1.625 1.828125 -5.421875 5.03125q-3.15625 2.65625 -4.0625 3.609375q-0.890625 0.9375 -1.484375 1.90625l14.046875 0z" fill-rule="nonzero"></path><path fill="#000000" fill-opacity="0.0" d="m29.267717 382.06036l263.37006 0l0 76.69293l-263.37006 0z" fill-rule="evenodd"></path><path fill="#000000" d="m41.40834 429.46036l0 -28.640625l12.703125 0q3.828125 0 5.8125 0.78125q2.0 0.765625 3.1875 2.71875q1.1875 1.953125 1.1875 4.3125q0 3.046875 -1.96875 5.140625q-1.96875 2.09375 -6.09375 2.65625q1.5 0.71875 2.28125 1.421875q1.671875 1.53125 3.15625 3.8125l4.96875 7.796875l-4.765625 0l-3.78125 -5.953125q-1.65625 -2.578125 -2.734375 -3.9375q-1.078125 -1.375 -1.9375 -1.921875q-0.84375 -0.546875 -1.71875 -0.765625q-0.640625 -0.140625 -2.109375 -0.140625l-4.390625 0l0 12.71875l-3.796875 0zm3.796875 -16.0l8.140625 0q2.59375 0 4.0625 -0.53125q1.46875 -0.546875 2.21875 -1.71875q0.765625 -1.1875 0.765625 -2.578125q0 -2.03125 -1.46875 -3.328125q-1.46875 -1.3125 -4.65625 -1.3125l-9.0625 0l0 9.46875zm23.277344 5.625q0 -5.765625 3.203125 -8.53125q2.671875 -2.3125 6.53125 -2.3125q4.265625 0 6.984375 2.8125q2.71875 2.796875 2.71875 7.734375q0 4.015625 -1.203125 6.3125q-1.203125 2.28125 -3.5 3.5625q-2.296875 1.265625 -5.0 1.265625q-4.359375 0 -7.046875 -2.796875q-2.6875 -2.796875 -2.6875 -8.046875zm3.609375 0q0 3.984375 1.734375 5.96875q1.75 1.984375 4.390625 1.984375q2.609375 0 4.34375 -1.984375q1.75 -2.0 1.75 -6.078125q0 -3.859375 -1.75 -5.828125q-1.75 -1.984375 -4.34375 -1.984375q-2.640625 0 -4.390625 1.96875q-1.734375 1.96875 -1.734375 5.953125zm18.636719 0q0 -5.765625 3.203125 -8.53125q2.671875 -2.3125 6.53125 -2.3125q4.265625 0 6.984375 2.8125q2.71875 2.796875 2.71875 7.734375q0 4.015625 -1.203125 6.3125q-1.203125 2.28125 -3.5 3.5625q-2.296875 1.265625 -5.0 1.265625q-4.359375 0 -7.046875 -2.796875q-2.6875 -2.796875 -2.6875 -8.046875zm3.609375 0q0 3.984375 1.734375 5.96875q1.75 1.984375 4.390625 1.984375q2.609375 0 4.34375 -1.984375q1.75 -2.0 1.75 -6.078125q0 -3.859375 -1.75 -5.828125q-1.75 -1.984375 -4.34375 -1.984375q-2.640625 0 -4.390625 1.96875q-1.734375 1.96875 -1.734375 5.953125zm19.949219 10.375l0 -20.75l3.140625 0l0 2.921875q0.984375 -1.53125 2.59375 -2.453125q1.625 -0.9375 3.703125 -0.9375q2.296875 0 3.765625 0.96875q1.484375 0.953125 2.09375 2.671875q2.453125 -3.640625 6.40625 -3.640625q3.078125 0 4.734375 1.71875q1.671875 1.703125 1.671875 5.265625l0 14.234375l-3.5 0l0 -13.0625q0 -2.109375 -0.34375 -3.03125q-0.34375 -0.9375 -1.25 -1.5q-0.890625 -0.578125 -2.09375 -0.578125q-2.1875 0 -3.640625 1.46875q-1.4375 1.453125 -1.4375 4.65625l0 12.046875l-3.515625 0l0 -13.484375q0 -2.34375 -0.859375 -3.515625q-0.859375 -1.171875 -2.8125 -1.171875q-1.484375 0 -2.75 0.78125q-1.265625 0.78125 -1.828125 2.296875q-0.5625 1.5 -0.5625 4.328125l0 10.765625l-3.515625 0zm43.48047 -7.5625l3.515625 -0.46875q0.59375 2.984375 2.046875 4.3125q1.46875 1.3125 3.546875 1.3125q2.484375 0 4.1875 -1.71875q1.71875 -1.71875 1.71875 -4.25q0 -2.421875 -1.59375 -4.0q-1.578125 -1.578125 -4.015625 -1.578125q-1.0 0 -2.484375 0.390625l0.390625 -3.078125q0.359375 0.03125 0.578125 0.03125q2.234375 0 4.03125 -1.171875q1.796875 -1.171875 1.796875 -3.609375q0 -1.9375 -1.3125 -3.203125q-1.296875 -1.265625 -3.375 -1.265625q-2.046875 0 -3.421875 1.296875q-1.359375 1.28125 -1.75 3.859375l-3.515625 -0.625q0.640625 -3.53125 2.921875 -5.46875q2.296875 -1.953125 5.6875 -1.953125q2.34375 0 4.3125 1.015625q1.984375 1.0 3.03125 2.734375q1.046875 1.734375 1.046875 3.6875q0 1.859375 -1.0 3.390625q-1.0 1.515625 -2.953125 2.40625q2.546875 0.59375 3.953125 2.4375q1.40625 1.84375 1.40625 4.625q0 3.75 -2.734375 6.359375q-2.734375 2.609375 -6.921875 2.609375q-3.765625 0 -6.265625 -2.25q-2.484375 -2.25 -2.828125 -5.828125z" fill-rule="nonzero"></path><path fill="#000000" fill-opacity="0.0" d="m29.267717 492.06036l263.37006 0l0 76.69293l-263.37006 0z" fill-rule="evenodd"></path><path fill="#000000" d="m41.40834 539.4604l0 -28.640656l12.703125 0q3.828125 0 5.8125 0.78125q2.0 0.7656555 3.1875 2.7187805q1.1875 1.953125 1.1875 4.3125q0 3.046875 -1.96875 5.140625q-1.96875 2.09375 -6.09375 2.65625q1.5 0.71875 2.28125 1.421875q1.671875 1.53125 3.15625 3.8125l4.96875 7.796875l-4.765625 0l-3.78125 -5.953125q-1.65625 -2.578125 -2.734375 -3.9375q-1.078125 -1.375 -1.9375 -1.921875q-0.84375 -0.546875 -1.71875 -0.765625q-0.640625 -0.140625 -2.109375 -0.140625l-4.390625 0l0 12.71875l-3.796875 0zm3.796875 -16.0l8.140625 0q2.59375 0 4.0625 -0.53125q1.46875 -0.546875 2.21875 -1.71875q0.765625 -1.1875 0.765625 -2.578125q0 -2.03125 -1.46875 -3.328125q-1.46875 -1.3125 -4.65625 -1.3125l-9.0625 0l0 9.46875zm23.277344 5.625q0 -5.765625 3.203125 -8.53125q2.671875 -2.3125 6.53125 -2.3125q4.265625 0 6.984375 2.8125q2.71875 2.796875 2.71875 7.734375q0 4.015625 -1.203125 6.3125q-1.203125 2.28125 -3.5 3.5625q-2.296875 1.265625 -5.0 1.265625q-4.359375 0 -7.046875 -2.796875q-2.6875 -2.796875 -2.6875 -8.046875zm3.609375 0q0 3.984375 1.734375 5.96875q1.75 1.984375 4.390625 1.984375q2.609375 0 4.34375 -1.984375q1.75 -2.0 1.75 -6.078125q0 -3.859375 -1.75 -5.828125q-1.75 -1.984375 -4.34375 -1.984375q-2.640625 0 -4.390625 1.96875q-1.734375 1.96875 -1.734375 5.953125zm18.636719 0q0 -5.765625 3.203125 -8.53125q2.671875 -2.3125 6.53125 -2.3125q4.265625 0 6.984375 2.8125q2.71875 2.796875 2.71875 7.734375q0 4.015625 -1.203125 6.3125q-1.203125 2.28125 -3.5 3.5625q-2.296875 1.265625 -5.0 1.265625q-4.359375 0 -7.046875 -2.796875q-2.6875 -2.796875 -2.6875 -8.046875zm3.609375 0q0 3.984375 1.734375 5.96875q1.75 1.984375 4.390625 1.984375q2.609375 0 4.34375 -1.984375q1.75 -2.0 1.75 -6.078125q0 -3.859375 -1.75 -5.828125q-1.75 -1.984375 -4.34375 -1.984375q-2.640625 0 -4.390625 1.96875q-1.734375 1.96875 -1.734375 5.953125zm19.949219 10.375l0 -20.75l3.140625 0l0 2.921875q0.984375 -1.53125 2.59375 -2.453125q1.625 -0.9375 3.703125 -0.9375q2.296875 0 3.765625 0.96875q1.484375 0.953125 2.09375 2.671875q2.453125 -3.640625 6.40625 -3.640625q3.078125 0 4.734375 1.71875q1.671875 1.703125 1.671875 5.265625l0 14.234375l-3.5 0l0 -13.0625q0 -2.109375 -0.34375 -3.03125q-0.34375 -0.9375 -1.25 -1.5q-0.890625 -0.578125 -2.09375 -0.578125q-2.1875 0 -3.640625 1.46875q-1.4375 1.453125 -1.4375 4.65625l0 12.046875l-3.515625 0l0 -13.484375q0 -2.34375 -0.859375 -3.515625q-0.859375 -1.171875 -2.8125 -1.171875q-1.484375 0 -2.75 0.78125q-1.265625 0.78125 -1.828125 2.296875q-0.5625 1.5 -0.5625 4.328125l0 10.765625l-3.515625 0zm54.73047 0l0 -6.859375l-12.421875 0l0 -3.21875l13.0625 -18.56253l2.875 0l0 18.56253l3.859375 0l0 3.21875l-3.859375 0l0 6.859375l-3.515625 0zm0 -10.078125l0 -12.90625l-8.96875 12.90625l8.96875 0z" fill-rule="nonzero"></path><path fill="#cccccc" d="m327.12335 167.31529l0 0c0 -8.952713 7.257599 -16.210312 16.210297 -16.210312l64.839264 0l0 0c4.299225 0 8.422394 1.7078705 11.462402 4.7478943c3.0400085 3.0400238 4.7478943 7.1631775 4.7478943 11.462418l0 174.44554c0 8.952698 -7.257599 16.210297 -16.210297 16.210297l-64.839264 0c-8.952698 0 -16.210297 -7.257599 -16.210297 -16.210297z" fill-rule="evenodd"></path><path fill="#000000" fill-opacity="0.0" d="m29.267717 602.06036l263.37006 0l0 76.69293l-263.37006 0z" fill-rule="evenodd"></path><path fill="#000000" d="m41.40834 649.4604l0 -28.640625l12.703125 0q3.828125 0 5.8125 0.78125q2.0 0.765625 3.1875 2.71875q1.1875 1.953125 1.1875 4.3125q0 3.046875 -1.96875 5.140625q-1.96875 2.09375 -6.09375 2.65625q1.5 0.71875 2.28125 1.421875q1.671875 1.53125 3.15625 3.8125l4.96875 7.796875l-4.765625 0l-3.78125 -5.953125q-1.65625 -2.578125 -2.734375 -3.9375q-1.078125 -1.375 -1.9375 -1.921875q-0.84375 -0.546875 -1.71875 -0.765625q-0.640625 -0.140625 -2.109375 -0.140625l-4.390625 0l0 12.71875l-3.796875 0zm3.796875 -16.0l8.140625 0q2.59375 0 4.0625 -0.53125q1.46875 -0.546875 2.21875 -1.71875q0.765625 -1.1875 0.765625 -2.578125q0 -2.03125 -1.46875 -3.328125q-1.46875 -1.3125 -4.65625 -1.3125l-9.0625 0l0 9.46875zm23.277344 5.625q0 -5.765625 3.203125 -8.53125q2.671875 -2.3125 6.53125 -2.3125q4.265625 0 6.984375 2.8125q2.71875 2.796875 2.71875 7.734375q0 4.015625 -1.203125 6.3125q-1.203125 2.28125 -3.5 3.5625q-2.296875 1.265625 -5.0 1.265625q-4.359375 0 -7.046875 -2.796875q-2.6875 -2.796875 -2.6875 -8.046875zm3.609375 0q0 3.984375 1.734375 5.96875q1.75 1.984375 4.390625 1.984375q2.609375 0 4.34375 -1.984375q1.75 -2.0 1.75 -6.078125q0 -3.859375 -1.75 -5.828125q-1.75 -1.984375 -4.34375 -1.984375q-2.640625 0 -4.390625 1.96875q-1.734375 1.96875 -1.734375 5.953125zm18.636719 0q0 -5.765625 3.203125 -8.53125q2.671875 -2.3125 6.53125 -2.3125q4.265625 0 6.984375 2.8125q2.71875 2.796875 2.71875 7.734375q0 4.015625 -1.203125 6.3125q-1.203125 2.28125 -3.5 3.5625q-2.296875 1.265625 -5.0 1.265625q-4.359375 0 -7.046875 -2.796875q-2.6875 -2.796875 -2.6875 -8.046875zm3.609375 0q0 3.984375 1.734375 5.96875q1.75 1.984375 4.390625 1.984375q2.609375 0 4.34375 -1.984375q1.75 -2.0 1.75 -6.078125q0 -3.859375 -1.75 -5.828125q-1.75 -1.984375 -4.34375 -1.984375q-2.640625 0 -4.390625 1.96875q-1.734375 1.96875 -1.734375 5.953125zm19.949219 10.375l0 -20.75l3.140625 0l0 2.921875q0.984375 -1.53125 2.59375 -2.453125q1.625 -0.9375 3.703125 -0.9375q2.296875 0 3.765625 0.96875q1.484375 0.953125 2.09375 2.671875q2.453125 -3.640625 6.40625 -3.640625q3.078125 0 4.734375 1.71875q1.671875 1.703125 1.671875 5.265625l0 14.234375l-3.5 0l0 -13.0625q0 -2.109375 -0.34375 -3.03125q-0.34375 -0.9375 -1.25 -1.5q-0.890625 -0.578125 -2.09375 -0.578125q-2.1875 0 -3.640625 1.46875q-1.4375 1.453125 -1.4375 4.65625l0 12.046875l-3.515625 0l0 -13.484375q0 -2.34375 -0.859375 -3.515625q-0.859375 -1.171875 -2.8125 -1.171875q-1.484375 0 -2.75 0.78125q-1.265625 0.78125 -1.828125 2.296875q-0.5625 1.5 -0.5625 4.328125l0 10.765625l-3.515625 0zm43.44922 -7.5l3.703125 -0.3125q0.40625 2.6875 1.890625 4.046875q1.5 1.359375 3.609375 1.359375q2.546875 0 4.296875 -1.90625q1.765625 -1.921875 1.765625 -5.078125q0 -3.015625 -1.703125 -4.75q-1.6875 -1.734375 -4.421875 -1.734375q-1.6875 0 -3.0625 0.765625q-1.359375 0.765625 -2.140625 2.0l-3.3125 -0.421875l2.78125 -14.71875l14.234375 0l0 3.359375l-11.421875 0l-1.546875 7.703125q2.578125 -1.796875 5.40625 -1.796875q3.75 0 6.328125 2.59375q2.578125 2.59375 2.578125 6.6875q0 3.875 -2.265625 6.71875q-2.75 3.46875 -7.515625 3.46875q-3.90625 0 -6.375 -2.1875q-2.46875 -2.1875 -2.828125 -5.796875z" fill-rule="nonzero"></path><path fill="#cccccc" d="m463.12335 279.31528l0 0c0 -8.952698 7.257599 -16.210297 16.210297 -16.210297l64.839264 0l0 0c4.2992554 0 8.422363 1.7078857 11.462402 4.7478943c3.040039 3.0400085 4.747864 7.1631775 4.747864 11.462402l0 260.2408c0 8.952698 -7.2575684 16.210327 -16.210266 16.210327l-64.839264 0c-8.952698 0 -16.210297 -7.2576294 -16.210297 -16.210327z" fill-rule="evenodd"></path><path fill="#cccccc" d="m593.90814 479.68536l0 0c0 -8.952698 7.2575684 -16.210297 16.210266 -16.210297l64.839294 0l0 0c4.2991943 0 8.422363 1.7078552 11.462402 4.7478943c3.039978 3.0400085 4.747864 7.1631775 4.747864 11.462402l0 174.44556c0 8.952698 -7.2575684 16.210266 -16.210266 16.210266l-64.839294 0c-8.952698 0 -16.210266 -7.2575684 -16.210266 -16.210266z" fill-rule="evenodd"></path><path fill="#cccccc" d="m596.05774 166.58037l0 0c0 -8.546814 6.928589 -15.475388 15.475403 -15.475388l66.30908 0l0 0c4.104309 0 8.040527 1.6304474 10.942749 4.5326385c2.9021606 2.9021912 4.532593 6.8384247 4.532593 10.942749l0 61.899643c0 8.546814 -6.928528 15.475372 -15.475342 15.475372l-66.30908 0l0 0c-8.546814 0 -15.475403 -6.9285583 -15.475403 -15.475372z" fill-rule="evenodd"></path><path fill="#ffff00" d="m199.80315 165.05276l0 0c0 -7.7031403 6.244644 -13.947784 13.947784 -13.947784l55.789474 0l0 0c3.6991882 0 7.2468567 1.4694977 9.862579 4.0852203c2.6157227 2.6157227 4.085205 6.163391 4.085205 9.862564l0 509.93118c0 7.703186 -6.244629 13.947815 -13.947784 13.947815l-55.789474 0c-7.7031403 0 -13.947784 -6.244629 -13.947784 -13.947815z" fill-rule="evenodd"></path><path fill="#000000" fill-opacity="0.0" d="m211.51968 165.87927l82.23624 0l0 63.55905l-82.23624 0z" fill-rule="evenodd"></path><path fill="#000000" d="m222.30093 205.91989l5.46875 -0.578125q0.234375 1.859375 1.375 2.953125q1.15625 1.078125 2.671875 1.078125q1.71875 0 2.90625 -1.390625q1.1875 -1.40625 1.1875 -4.21875q0 -2.640625 -1.1875 -3.953125q-1.171875 -1.3125 -3.0625 -1.3125q-2.375 0 -4.25 2.078125l-4.453125 -0.640625l2.8125 -14.90625l14.515625 0l0 5.140625l-10.34375 0l-0.859375 4.859375q1.828125 -0.90625 3.75 -0.90625q3.640625 0 6.171875 2.65625q2.546875 2.65625 2.546875 6.890625q0 3.53125 -2.046875 6.3125q-2.796875 3.78125 -7.75 3.78125q-3.96875 0 -6.46875 -2.125q-2.5 -2.125 -2.984375 -5.71875zm31.449219 -21.390625q4.15625 0 6.5 2.96875q2.796875 3.515625 2.796875 11.65625q0 8.125 -2.8125 11.6875q-2.328125 2.921875 -6.484375 2.921875q-4.1875 0 -6.75 -3.203125q-2.546875 -3.21875 -2.546875 -11.46875q0 -8.078125 2.8125 -11.640625q2.3125 -2.921875 6.484375 -2.921875zm0 4.546875q-1.0 0 -1.78125 0.640625q-0.78125 0.625 -1.21875 2.265625q-0.5625 2.140625 -0.5625 7.171875q0 5.046875 0.5 6.9375q0.515625 1.875 1.28125 2.5q0.78125 0.625 1.78125 0.625q0.984375 0 1.765625 -0.625q0.78125 -0.640625 1.21875 -2.28125q0.5625 -2.109375 0.5625 -7.15625q0 -5.03125 -0.515625 -6.921875q-0.5 -1.890625 -1.28125 -2.515625q-0.765625 -0.640625 -1.75 -0.640625z" fill-rule="nonzero"></path><path fill="#000000" fill-opacity="0.0" d="m211.51968 275.87927l82.23624 0l0 63.55905l-82.23624 0z" fill-rule="evenodd"></path><path fill="#000000" d="m232.98843 323.27927l0 -5.765625l-11.71875 0l0 -4.796875l12.421875 -18.1875l4.609375 0l0 18.15625l3.546875 0l0 4.828125l-3.546875 0l0 5.765625l-5.3125 0zm0 -10.59375l0 -9.78125l-6.59375 9.78125l6.59375 0zm20.761719 -18.15625q4.15625 0 6.5 2.96875q2.796875 3.515625 2.796875 11.65625q0 8.125 -2.8125 11.6875q-2.328125 2.921875 -6.484375 2.921875q-4.1875 0 -6.75 -3.203125q-2.546875 -3.21875 -2.546875 -11.46875q0 -8.078125 2.8125 -11.640625q2.3125 -2.921875 6.484375 -2.921875zm0 4.546875q-1.0 0 -1.78125 0.640625q-0.78125 0.625 -1.21875 2.265625q-0.5625 2.140625 -0.5625 7.171875q0 5.046875 0.5 6.9375q0.515625 1.875 1.28125 2.5q0.78125 0.625 1.78125 0.625q0.984375 0 1.765625 -0.625q0.78125 -0.640625 1.21875 -2.28125q0.5625 -2.109375 0.5625 -7.15625q0 -5.03125 -0.515625 -6.921875q-0.5 -1.890625 -1.28125 -2.515625q-0.765625 -0.640625 -1.75 -0.640625z" fill-rule="nonzero"></path><path fill="#000000" fill-opacity="0.0" d="m211.51968 385.87927l82.23624 0l0 63.55905l-82.23624 0z" fill-rule="evenodd"></path><path fill="#000000" d="m222.01968 425.68552l5.3125 -0.65625q0.265625 2.03125 1.375 3.109375q1.109375 1.078125 2.6875 1.078125q1.703125 0 2.859375 -1.28125q1.171875 -1.296875 1.171875 -3.484375q0 -2.078125 -1.125 -3.28125q-1.109375 -1.21875 -2.703125 -1.21875q-1.0625 0 -2.515625 0.421875l0.59375 -4.484375q2.234375 0.0625 3.40625 -0.953125q1.171875 -1.03125 1.171875 -2.734375q0 -1.4375 -0.859375 -2.296875q-0.859375 -0.859375 -2.28125 -0.859375q-1.40625 0 -2.40625 0.984375q-1.0 0.96875 -1.21875 2.84375l-5.046875 -0.859375q0.515625 -2.609375 1.578125 -4.15625q1.078125 -1.546875 2.96875 -2.4375q1.90625 -0.890625 4.28125 -0.890625q4.03125 0 6.484375 2.578125q2.0 2.109375 2.0 4.765625q0 3.765625 -4.109375 6.015625q2.453125 0.53125 3.921875 2.375q1.484375 1.828125 1.484375 4.421875q0 3.765625 -2.765625 6.421875q-2.75 2.65625 -6.84375 2.65625q-3.890625 0 -6.453125 -2.234375q-2.546875 -2.234375 -2.96875 -5.84375zm31.730469 -21.15625q4.15625 0 6.5 2.96875q2.796875 3.515625 2.796875 11.65625q0 8.125 -2.8125 11.6875q-2.328125 2.921875 -6.484375 2.921875q-4.1875 0 -6.75 -3.203125q-2.546875 -3.21875 -2.546875 -11.46875q0 -8.078125 2.8125 -11.640625q2.3125 -2.921875 6.484375 -2.921875zm0 4.546875q-1.0 0 -1.78125 0.640625q-0.78125 0.625 -1.21875 2.265625q-0.5625 2.140625 -0.5625 7.171875q0 5.046875 0.5 6.9375q0.515625 1.875 1.28125 2.5q0.78125 0.625 1.78125 0.625q0.984375 0 1.765625 -0.625q0.78125 -0.640625 1.21875 -2.28125q0.5625 -2.109375 0.5625 -7.15625q0 -5.03125 -0.515625 -6.921875q-0.5 -1.890625 -1.28125 -2.515625q-0.765625 -0.640625 -1.75 -0.640625z" fill-rule="nonzero"></path><path fill="#000000" fill-opacity="0.0" d="m211.51968 495.87927l82.23624 0l0 63.55902l-82.23624 0z" fill-rule="evenodd"></path><path fill="#000000" d="m240.75406 538.1855l0 5.09375l-19.234375 0q0.3125 -2.890625 1.875 -5.46875q1.5625 -2.59375 6.171875 -6.875q3.703125 -3.453125 4.546875 -4.6875q1.140625 -1.703125 1.140625 -3.359375q0 -1.84375 -1.0 -2.828125q-0.984375 -0.984375 -2.71875 -0.984375q-1.71875 0 -2.734375 1.046875q-1.015625 1.03125 -1.171875 3.421875l-5.46875 -0.546875q0.484375 -4.53125 3.0625 -6.5q2.578125 -1.96875 6.453125 -1.96875q4.234375 0 6.65625 2.28125q2.421875 2.28125 2.421875 5.6875q0 1.9375 -0.703125 3.6875q-0.6875 1.734375 -2.1875 3.65625q-1.0 1.265625 -3.59375 3.65625q-2.59375 2.375 -3.296875 3.15625q-0.6875 0.78125 -1.109375 1.53125l10.890625 0zm12.996094 -23.65625q4.15625 0 6.5 2.96875q2.796875 3.515625 2.796875 11.65625q0 8.125 -2.8125 11.6875q-2.328125 2.921875 -6.484375 2.921875q-4.1875 0 -6.75 -3.203125q-2.546875 -3.21875 -2.546875 -11.46875q0 -8.078125 2.8125 -11.640625q2.3125 -2.921875 6.484375 -2.921875zm0 4.546875q-1.0 0 -1.78125 0.640625q-0.78125 0.625 -1.21875 2.265625q-0.5625 2.140625 -0.5625 7.171875q0 5.046875 0.5 6.9375q0.515625 1.875 1.28125 2.5q0.78125 0.625 1.78125 0.625q0.984375 0 1.765625 -0.625q0.78125 -0.640625 1.21875 -2.28125q0.5625 -2.109375 0.5625 -7.15625q0 -5.03125 -0.515625 -6.921875q-0.5 -1.890625 -1.28125 -2.515625q-0.765625 -0.640625 -1.75 -0.640625z" fill-rule="nonzero"></path><path fill="#000000" fill-opacity="0.0" d="m211.51968 605.8793l82.23624 0l0 63.55902l-82.23624 0z" fill-rule="evenodd"></path><path fill="#000000" d="m236.26968 653.27924l-5.5 0l0 -20.6875q-3.0 2.8125 -7.078125 4.15625l0 -4.96875q2.140625 -0.703125 4.65625 -2.671875q2.53125 -1.96875 3.46875 -4.578125l4.453125 0l0 28.75zm17.480469 -28.75q4.15625 0 6.5 2.96875q2.796875 3.515625 2.796875 11.65625q0 8.125 -2.8125 11.6875q-2.328125 2.921875 -6.484375 2.921875q-4.1875 0 -6.75 -3.203125q-2.546875 -3.21875 -2.546875 -11.46875q0 -8.078125 2.8125 -11.640625q2.3125 -2.921875 6.484375 -2.921875zm0 4.546875q-1.0 0 -1.78125 0.640625q-0.78125 0.625 -1.21875 2.265625q-0.5625 2.140625 -0.5625 7.171875q0 5.046875 0.5 6.9375q0.515625 1.875 1.28125 2.5q0.78125 0.625 1.78125 0.625q0.984375 0 1.765625 -0.625q0.78125 -0.640625 1.21875 -2.28125q0.5625 -2.109375 0.5625 -7.15625q0 -5.03125 -0.515625 -6.921875q-0.5 -1.890625 -1.28125 -2.515625q-0.765625 -0.640625 -1.75 -0.640625z" fill-rule="nonzero"></path><path fill="#000000" fill-opacity="0.0" d="m31.060368 69.31233l244.44095 0l0 70.267715l-244.44095 0z" fill-rule="evenodd"></path><path fill="#000000" d="m41.591618 109.29796l0.1875 -0.84375q1.640625 -0.3125 2.1875 -0.71875q0.5625 -0.40625 1.0 -1.4375q0.453125 -1.046875 1.21875 -4.296875q1.015625 -4.296875 1.84375 -6.1875q1.265625 -2.84375 3.140625 -4.21875q1.890625 -1.375 3.8125 -1.375q1.234375 0 2.078125 0.625q0.84375 0.625 0.84375 1.296875q0 0.375 -0.265625 0.640625q-0.25 0.265625 -0.609375 0.265625q-0.46875 0 -1.140625 -0.609375q-0.75 -0.65625 -1.171875 -0.859375q-0.40625 -0.203125 -0.796875 -0.203125q-0.453125 0 -0.890625 0.25q-0.609375 0.34375 -1.3125 1.3125q-0.6875 0.953125 -1.4375 2.84375q-0.484375 1.28125 -1.234375 4.21875q-1.171875 4.671875 -1.78125 6.203125q-0.4375 1.09375 -1.0625 1.8125q2.234375 -0.5 3.5625 -0.5q0.828125 0 1.53125 0.109375q0.703125 0.09375 2.453125 0.5q1.515625 0.359375 2.125 0.359375q0.59375 0 1.0 -0.359375q0.421875 -0.375 0.421875 -0.84375q0 -0.296875 -0.21875 -0.828125q-0.203125 -0.5 -0.203125 -0.796875q0 -0.421875 0.25 -0.65625q0.25 -0.25 0.65625 -0.25q0.46875 0 0.796875 0.421875q0.328125 0.40625 0.328125 1.125q0 1.359375 -1.125 2.34375q-1.125 0.984375 -3.046875 0.984375q-0.953125 0 -2.453125 -0.140625q-5.0625 -0.453125 -6.625 -0.453125q-2.296875 0 -4.0625 0.265625zm30.406246 -13.671875l1.03125 -0.21875l-1.171875 3.953125q-0.703125 2.359375 -1.328125 5.4375q-0.34375 1.671875 -0.34375 2.15625q0 0.484375 0.390625 0.484375q0.25 0 0.796875 -0.328125q0.96875 -0.578125 1.859375 -1.4375l0.5 0.609375q-1.78125 1.625 -2.28125 1.96875q-1.0 0.6875 -1.90625 1.015625q-0.59375 0.21875 -1.15625 0.21875q-0.40625 0 -0.609375 -0.1875q-0.203125 -0.1875 -0.203125 -0.546875q0 -0.234375 0.125 -0.640625l0.625 -2.125q-1.34375 1.609375 -3.203125 2.765625q-1.1406212 0.71875 -2.0937462 0.71875q-0.90625 0 -1.390625 -0.640625q-0.65625 -0.859375 -0.65625 -2.25q0 -1.65625 0.875 -3.6875q0.890625 -2.03125 2.3749962 -3.6875q1.484375 -1.65625 3.125 -2.4375q1.265625 -0.59375 3.25 -0.59375q0.5 0 1.015625 0.0625l0.375 -0.609375zm-1.9375 2.390625q-0.84375 -0.171875 -1.421875 -0.171875q-1.40625 0 -2.453125 0.78125q-1.046875 0.765625 -1.953125 2.78125q-0.8906212 2.0 -0.8906212 4.0q0 1.0625 0.359375 1.53125q0.3593712 0.46875 0.9374962 0.46875q1.078125 0 2.3125 -1.15625q1.234375 -1.171875 1.8125 -3.359375l1.296875 -4.875zm11.578125 -2.140625q1.390625 0 2.140625 0.546875q0.765625 0.53125 0.765625 1.234375q0 0.421875 -0.328125 0.734375q-0.3125 0.3125 -0.765625 0.3125q-0.296875 0 -0.515625 -0.125q-0.21875 -0.140625 -0.625 -0.671875q-0.765625 -1.015625 -1.515625 -1.015625q-0.640625 0 -1.140625 0.5q-0.484375 0.484375 -0.484375 1.21875q0 0.640625 0.3125 1.25q0.3125 0.59375 1.578125 1.9375q1.734375 1.84375 1.734375 3.5q0 1.65625 -1.40625 2.90625q-1.40625 1.234375 -3.625 1.234375q-1.859375 0 -2.765625 -0.75q-0.90625 -0.765625 -0.90625 -1.875q0 -0.546875 0.34375 -0.90625q0.34375 -0.359375 0.84375 -0.359375q0.4375 0 0.75 0.296875q0.3125 0.28125 0.3125 0.671875q0 0.15625 -0.03125 0.40625q-0.015625 0.203125 -0.015625 0.34375q0 0.515625 0.4375 0.875q0.421875 0.359375 1.15625 0.359375q0.84375 0 1.484375 -0.28125q0.640625 -0.296875 1.0 -0.875q0.359375 -0.59375 0.359375 -1.171875q0 -0.5625 -0.34375 -1.125q-0.328125 -0.5625 -1.5 -1.859375q-1.625 -1.8125 -1.625 -3.484375q0 -1.53125 1.234375 -2.671875q1.234375 -1.15625 3.140625 -1.15625zm7.75 -2.390625l2.484375 -0.953125l-1.125 4.375l3.234375 0l-0.25 1.109375l-3.234375 0l-1.375 5.234375q-0.640625 2.359375 -0.640625 3.28125q0 0.421875 0.171875 0.609375q0.1875 0.1875 0.5 0.1875q0.484375 0 1.484375 -0.578125q1.3125 -0.765625 2.5 -1.734375l0.59375 0.71875q-3.421875 2.578125 -4.578125 3.15625q-1.15625 0.578125 -1.859375 0.578125q-0.578125 0 -0.921875 -0.421875q-0.328125 -0.421875 -0.328125 -1.375q0 -1.125 0.59375 -3.4375l1.609375 -6.21875l-2.53125 0l0.28125 -1.109375l2.515625 0l0.875 -3.421875zm24.921875 16.203125l-1.25 -16.8125q-0.40625 4.25 -1.5 7.9375q-1.09375 3.671875 -2.484375 5.6875q-1.390625 2.0 -2.84375 2.8125q-1.453125 0.8125 -2.875 0.8125q-0.859375 0 -1.328125 -0.359375q-0.453125 -0.34375 -0.453125 -0.84375q0 -0.421875 0.328125 -0.734375q0.34375 -0.3125 0.859375 -0.3125q0.375 0 1.078125 0.171875q0.640625 0.171875 1.0625 0.171875q0.734375 0 1.53125 -0.546875q1.203125 -0.8125 2.375 -2.90625q1.1875 -2.109375 2.109375 -5.859375q0.9375 -3.765625 1.171875 -7.34375q-3.546875 0 -5.765625 1.765625q-1.765625 1.40625 -1.765625 3.140625q0 0.765625 0.84375 1.84375q0.453125 0.578125 0.453125 0.9375q0 0.40625 -0.265625 0.671875q-0.25 0.265625 -0.609375 0.265625q-0.609375 0 -1.078125 -0.6875q-0.640625 -0.921875 -0.640625 -2.1875q0 -1.78125 1.1875 -3.40625q1.203125 -1.640625 3.3125 -2.484375q2.125 -0.859375 4.96875 -0.875q1.53125 0 2.453125 -0.28125q-0.046875 1.40625 -0.046875 1.515625q0 0.140625 0.046875 0.640625l0.921875 11.875q3.765625 -6.578125 7.359375 -10.828125q2.546875 -3.015625 4.4375 -4.078125q-1.078125 2.96875 -2.3125 7.828125l-1.90625 7.5q-0.15625 0.625 -0.421875 1.828125l-0.375 1.671875q1.1875 0.28125 2.171875 0.28125q0.796875 0 1.703125 -0.1875l-0.203125 0.90625q-0.796875 0.140625 -1.234375 0.140625q-0.640625 0 -1.84375 -0.140625q-0.984375 -0.125 -1.75 -0.125q-0.8125 0 -1.84375 0.3125q0.859375 -2.25 1.796875 -6.046875l1.203125 -4.78125q0.765625 -3.09375 1.328125 -4.25q-1.25 1.421875 -3.859375 5.21875q-2.09375 3.0625 -4.6875 7.75l-1.359375 2.390625zm23.03125 -4.578125l0.515625 0.6875q-3.828125 3.640625 -6.5625 3.640625q-1.109375 0 -1.703125 -0.75q-0.578125 -0.75 -0.578125 -2.40625q0 -3.34375 2.03125 -6.65625q2.28125 -3.765625 5.453125 -3.765625q1.109375 0 1.6875 0.5625q0.59375 0.546875 0.59375 1.515625q0 1.015625 -0.703125 2.0q-0.703125 0.984375 -2.515625 2.046875q-0.90625 0.515625 -3.875 1.859375q-0.140625 0.84375 -0.140625 1.609375q0 1.109375 0.34375 1.546875q0.359375 0.4375 1.03125 0.4375q0.640625 0 1.40625 -0.359375q1.03125 -0.484375 3.015625 -1.96875zm-5.46875 -2.265625q2.515625 -1.125 3.78125 -2.421875q0.859375 -0.90625 0.859375 -1.796875q0 -0.671875 -0.359375 -1.0625q-0.34375 -0.40625 -0.90625 -0.40625q-0.578125 0 -1.125 0.4375q-0.734375 0.578125 -1.234375 1.75q-0.71875 1.71875 -1.015625 3.5zm15.015625 -6.96875q1.390625 0 2.140625 0.546875q0.765625 0.53125 0.765625 1.234375q0 0.421875 -0.328125 0.734375q-0.3125 0.3125 -0.765625 0.3125q-0.296875 0 -0.515625 -0.125q-0.21875 -0.140625 -0.625 -0.671875q-0.765625 -1.015625 -1.515625 -1.015625q-0.640625 0 -1.140625 0.5q-0.484375 0.484375 -0.484375 1.21875q0 0.640625 0.3125 1.25q0.3125 0.59375 1.578125 1.9375q1.734375 1.84375 1.734375 3.5q0 1.65625 -1.40625 2.90625q-1.40625 1.234375 -3.625 1.234375q-1.859375 0 -2.765625 -0.75q-0.90625 -0.765625 -0.90625 -1.875q0 -0.546875 0.34375 -0.90625q0.34375 -0.359375 0.84375 -0.359375q0.4375 0 0.75 0.296875q0.3125 0.28125 0.3125 0.671875q0 0.15625 -0.03125 0.40625q-0.015625 0.203125 -0.015625 0.34375q0 0.515625 0.4375 0.875q0.421875 0.359375 1.15625 0.359375q0.84375 0 1.484375 -0.28125q0.640625 -0.296875 1.0 -0.875q0.359375 -0.59375 0.359375 -1.171875q0 -0.5625 -0.34375 -1.125q-0.328125 -0.5625 -1.5 -1.859375q-1.625 -1.8125 -1.625 -3.484375q0 -1.53125 1.234375 -2.671875q1.234375 -1.15625 3.140625 -1.15625zm10.234375 0q1.390625 0 2.140625 0.546875q0.765625 0.53125 0.765625 1.234375q0 0.421875 -0.328125 0.734375q-0.3125 0.3125 -0.765625 0.3125q-0.296875 0 -0.515625 -0.125q-0.21875 -0.140625 -0.625 -0.671875q-0.765625 -1.015625 -1.515625 -1.015625q-0.640625 0 -1.140625 0.5q-0.484375 0.484375 -0.484375 1.21875q0 0.640625 0.3125 1.25q0.3125 0.59375 1.578125 1.9375q1.734375 1.84375 1.734375 3.5q0 1.65625 -1.40625 2.90625q-1.40625 1.234375 -3.625 1.234375q-1.859375 0 -2.765625 -0.75q-0.90625 -0.765625 -0.90625 -1.875q0 -0.546875 0.34375 -0.90625q0.34375 -0.359375 0.84375 -0.359375q0.4375 0 0.75 0.296875q0.3125 0.28125 0.3125 0.671875q0 0.15625 -0.03125 0.40625q-0.015625 0.203125 -0.015625 0.34375q0 0.515625 0.4375 0.875q0.421875 0.359375 1.15625 0.359375q0.84375 0 1.484375 -0.28125q0.640625 -0.296875 1.0 -0.875q0.359375 -0.59375 0.359375 -1.171875q0 -0.5625 -0.34375 -1.125q-0.328125 -0.5625 -1.5 -1.859375q-1.625 -1.8125 -1.625 -3.484375q0 -1.53125 1.234375 -2.671875q1.234375 -1.15625 3.140625 -1.15625zm14.03125 -0.25l1.03125 -0.21875l-1.171875 3.953125q-0.703125 2.359375 -1.328125 5.4375q-0.34375 1.671875 -0.34375 2.15625q0 0.484375 0.390625 0.484375q0.25 0 0.796875 -0.328125q0.96875 -0.578125 1.859375 -1.4375l0.5 0.609375q-1.78125 1.625 -2.28125 1.96875q-1.0 0.6875 -1.90625 1.015625q-0.59375 0.21875 -1.15625 0.21875q-0.40625 0 -0.609375 -0.1875q-0.203125 -0.1875 -0.203125 -0.546875q0 -0.234375 0.125 -0.640625l0.625 -2.125q-1.34375 1.609375 -3.203125 2.765625q-1.140625 0.71875 -2.09375 0.71875q-0.90625 0 -1.390625 -0.640625q-0.65625 -0.859375 -0.65625 -2.25q0 -1.65625 0.875 -3.6875q0.890625 -2.03125 2.375 -3.6875q1.484375 -1.65625 3.125 -2.4375q1.265625 -0.59375 3.25 -0.59375q0.5 0 1.015625 0.0625l0.375 -0.609375zm-1.9375 2.390625q-0.84375 -0.171875 -1.421875 -0.171875q-1.40625 0 -2.453125 0.78125q-1.046875 0.765625 -1.953125 2.78125q-0.890625 2.0 -0.890625 4.0q0 1.0625 0.359375 1.53125q0.359375 0.46875 0.9375 0.46875q1.078125 0 2.3125 -1.15625q1.234375 -1.171875 1.8125 -3.359375l1.296875 -4.875zm15.234375 -2.234375l1.265625 -0.28125q-1.140625 3.65625 -2.09375 7.328125q-0.6875 2.625 -0.953125 4.375q-0.140625 0.875 -0.15625 2.21875q-0.03125 2.25 -0.5 3.625q-0.65625 1.921875 -2.453125 3.09375q-1.78125 1.171875 -4.234375 1.171875q-2.109375 0 -3.328125 -1.0q-1.203125 -0.984375 -1.203125 -2.265625q0 -1.265625 0.96875 -2.359375q0.71875 -0.828125 3.0 -2.0q1.15625 -0.609375 2.171875 -1.25q-1.15625 0.59375 -1.796875 0.59375q-0.578125 0 -1.03125 -0.53125q-0.4375 -0.546875 -0.4375 -1.4375q0 -2.875 1.703125 -5.703125q1.71875 -2.84375 4.125 -4.265625q1.484375 -0.875 3.71875 -0.875q0.4375 0 1.078125 0.03125l0.15625 -0.46875zm-1.75 2.3125q-0.75 -0.140625 -1.328125 -0.140625q-1.484375 0 -2.546875 0.78125q-1.0625 0.78125 -1.8125 2.625q-1.046875 2.609375 -1.046875 4.390625q0 0.734375 0.40625 1.234375q0.421875 0.5 0.9375 0.5q0.625 0 1.546875 -0.59375q0.921875 -0.609375 1.5 -1.515625q0.59375 -0.90625 1.203125 -3.125l1.140625 -4.15625zm-2.125 8.515625q-1.0625 0.953125 -4.09375 3.046875q-2.671875 1.8125 -3.28125 2.609375q-0.609375 0.8125 -0.609375 1.71875q0 0.890625 0.78125 1.59375q0.796875 0.71875 1.921875 0.71875q1.0625 0 2.0625 -0.53125q1.0 -0.515625 1.734375 -1.515625q0.75 -0.984375 1.03125 -2.234375q0.28125 -1.25 0.296875 -3.3125q0.015625 -0.453125 0.15625 -2.09375zm14.34375 -1.5l0.515625 0.6875q-3.828125 3.640625 -6.5625 3.640625q-1.109375 0 -1.703125 -0.75q-0.578125 -0.75 -0.578125 -2.40625q0 -3.34375 2.03125 -6.65625q2.28125 -3.765625 5.453125 -3.765625q1.109375 0 1.6875 0.5625q0.59375 0.546875 0.59375 1.515625q0 1.015625 -0.703125 2.0q-0.703125 0.984375 -2.515625 2.046875q-0.90625 0.515625 -3.875 1.859375q-0.140625 0.84375 -0.140625 1.609375q0 1.109375 0.34375 1.546875q0.359375 0.4375 1.03125 0.4375q0.640625 0 1.40625 -0.359375q1.03125 -0.484375 3.015625 -1.96875zm-5.46875 -2.265625q2.515625 -1.125 3.78125 -2.421875q0.859375 -0.90625 0.859375 -1.796875q0 -0.671875 -0.359375 -1.0625q-0.34375 -0.40625 -0.90625 -0.40625q-0.578125 0 -1.125 0.4375q-0.734375 0.578125 -1.234375 1.75q-0.71875 1.71875 -1.015625 3.5z" fill-rule="nonzero"></path><path fill="#000000" d="m207.0398 106.6194l22.977081 27.133255l-1.3865356 16.725006l-16.72371 -1.3864136l-22.977081 -27.13327l16.72371 1.3864212z" fill-rule="evenodd"></path><path stroke="#000000" stroke-width="1.0" stroke-linejoin="round" stroke-linecap="butt" d="m207.0398 106.6194l22.977081 27.133255l-1.3865356 16.725006l-16.72371 -1.3864136l-22.977081 -27.13327l16.72371 1.3864212z" fill-rule="evenodd"></path><path fill="#ff9900" d="m340.29974 200.52808l0 0c0 -19.4039 15.72998 -35.133865 35.13388 -35.133865l0 0c9.318085 0 18.254517 3.7015991 24.843384 10.290466c6.588867 6.5888824 10.290466 15.525314 10.290466 24.8434l0 0c0 19.403885 -15.72995 35.13385 -35.13385 35.13385l0 0c-19.4039 0 -35.13388 -15.729965 -35.13388 -35.13385z" fill-rule="evenodd"></path><path fill="#ffffff" d="m368.91602 82.2021l258.2362 0l0 56.850388l-258.2362 0z" fill-rule="evenodd"></path><path fill="#000000" d="m379.44727 122.18773l0.1875 -0.84375q1.640625 -0.3125 2.1875 -0.71875q0.5625 -0.40625 1.0 -1.4375q0.453125 -1.046875 1.21875 -4.296875q1.015625 -4.296875 1.84375 -6.1875q1.265625 -2.84375 3.140625 -4.21875q1.890625 -1.375 3.8125 -1.375q1.234375 0 2.078125 0.625q0.84375 0.625 0.84375 1.296875q0 0.375 -0.265625 0.640625q-0.25 0.265625 -0.609375 0.265625q-0.46875 0 -1.140625 -0.609375q-0.75 -0.65625 -1.171875 -0.859375q-0.40625 -0.203125 -0.796875 -0.203125q-0.453125 0 -0.890625 0.25q-0.609375 0.34375 -1.3125 1.3125q-0.6875 0.953125 -1.4375 2.84375q-0.484375 1.28125 -1.234375 4.21875q-1.171875 4.671875 -1.78125 6.203125q-0.4375 1.09375 -1.0625 1.8125q2.234375 -0.5 3.5625 -0.5q0.828125 0 1.53125 0.109375q0.703125 0.09375 2.453125 0.5q1.515625 0.359375 2.125 0.359375q0.59375 0 1.0 -0.359375q0.421875 -0.375 0.421875 -0.84375q0 -0.296875 -0.21875 -0.828125q-0.203125 -0.5 -0.203125 -0.796875q0 -0.421875 0.25 -0.65625q0.25 -0.25 0.65625 -0.25q0.46875 0 0.796875 0.421875q0.328125 0.40625 0.328125 1.125q0 1.359375 -1.125 2.34375q-1.125 0.984375 -3.046875 0.984375q-0.953125 0 -2.453125 -0.140625q-5.0625 -0.453125 -6.625 -0.453125q-2.296875 0 -4.0625 0.265625zm30.40625 -13.671875l1.03125 -0.21875l-1.171875 3.953125q-0.703125 2.359375 -1.328125 5.4375q-0.34375 1.671875 -0.34375 2.15625q0 0.484375 0.390625 0.484375q0.25 0 0.796875 -0.328125q0.96875 -0.578125 1.859375 -1.4375l0.5 0.609375q-1.78125 1.625 -2.28125 1.96875q-1.0 0.6875 -1.90625 1.015625q-0.59375 0.21875 -1.15625 0.21875q-0.40625 0 -0.609375 -0.1875q-0.203125 -0.1875 -0.203125 -0.546875q0 -0.234375 0.125 -0.640625l0.625 -2.125q-1.34375 1.609375 -3.203125 2.765625q-1.140625 0.71875 -2.09375 0.71875q-0.90625 0 -1.390625 -0.640625q-0.65625 -0.859375 -0.65625 -2.25q0 -1.65625 0.875 -3.6875q0.890625 -2.03125 2.375 -3.6875q1.484375 -1.65625 3.125 -2.4375q1.265625 -0.59375 3.25 -0.59375q0.5 0 1.015625 0.0625l0.375 -0.609375zm-1.9375 2.390625q-0.84375 -0.171875 -1.421875 -0.171875q-1.40625 0 -2.453125 0.78125q-1.046875 0.765625 -1.953125 2.78125q-0.890625 2.0 -0.890625 4.0q0 1.0625 0.359375 1.53125q0.359375 0.46875 0.9375 0.46875q1.078125 0 2.3125 -1.15625q1.234375 -1.171875 1.8125 -3.359375l1.296875 -4.875zm11.578125 -2.140625q1.390625 0 2.140625 0.546875q0.765625 0.53125 0.765625 1.234375q0 0.421875 -0.328125 0.734375q-0.3125 0.3125 -0.765625 0.3125q-0.296875 0 -0.515625 -0.125q-0.21875 -0.140625 -0.625 -0.671875q-0.765625 -1.015625 -1.515625 -1.015625q-0.640625 0 -1.140625 0.5q-0.484375 0.484375 -0.484375 1.21875q0 0.640625 0.3125 1.25q0.3125 0.59375 1.578125 1.9375q1.734375 1.84375 1.734375 3.5q0 1.65625 -1.40625 2.90625q-1.40625 1.234375 -3.625 1.234375q-1.859375 0 -2.765625 -0.75q-0.90625 -0.765625 -0.90625 -1.875q0 -0.546875 0.34375 -0.90625q0.34375 -0.359375 0.84375 -0.359375q0.4375 0 0.75 0.296875q0.3125 0.28125 0.3125 0.671875q0 0.15625 -0.03125 0.40625q-0.015625 0.203125 -0.015625 0.34375q0 0.515625 0.4375 0.875q0.421875 0.359375 1.15625 0.359375q0.84375 0 1.484375 -0.28125q0.640625 -0.296875 1.0 -0.875q0.359375 -0.59375 0.359375 -1.171875q0 -0.5625 -0.34375 -1.125q-0.328125 -0.5625 -1.5 -1.859375q-1.625 -1.8125 -1.625 -3.484375q0 -1.53125 1.234375 -2.671875q1.234375 -1.15625 3.140625 -1.15625zm7.75 -2.390625l2.484375 -0.953125l-1.125 4.375l3.234375 0l-0.25 1.109375l-3.234375 0l-1.375 5.234375q-0.640625 2.359375 -0.640625 3.28125q0 0.421875 0.171875 0.609375q0.1875 0.1875 0.5 0.1875q0.484375 0 1.484375 -0.578125q1.3125 -0.765625 2.5 -1.734375l0.59375 0.71875q-3.421875 2.578125 -4.578125 3.15625q-1.15625 0.578125 -1.859375 0.578125q-0.578125 0 -0.921875 -0.421875q-0.328125 -0.421875 -0.328125 -1.375q0 -1.125 0.59375 -3.4375l1.609375 -6.21875l-2.53125 0l0.28125 -1.109375l2.515625 0l0.875 -3.421875zm24.921875 16.203125l-1.25 -16.8125q-0.40625 4.25 -1.5 7.9375q-1.09375 3.671875 -2.484375 5.6875q-1.390625 2.0 -2.84375 2.8125q-1.453125 0.8125 -2.875 0.8125q-0.859375 0 -1.328125 -0.359375q-0.453125 -0.34375 -0.453125 -0.84375q0 -0.421875 0.328125 -0.734375q0.34375 -0.3125 0.859375 -0.3125q0.375 0 1.078125 0.171875q0.640625 0.171875 1.0625 0.171875q0.734375 0 1.53125 -0.546875q1.203125 -0.8125 2.375 -2.90625q1.1875 -2.109375 2.109375 -5.859375q0.9375 -3.765625 1.171875 -7.34375q-3.546875 0 -5.765625 1.765625q-1.765625 1.40625 -1.765625 3.140625q0 0.765625 0.84375 1.84375q0.453125 0.578125 0.453125 0.9375q0 0.40625 -0.265625 0.671875q-0.25 0.265625 -0.609375 0.265625q-0.609375 0 -1.078125 -0.6875q-0.640625 -0.921875 -0.640625 -2.1875q0 -1.78125 1.1875 -3.40625q1.203125 -1.640625 3.3125 -2.484375q2.125 -0.859375 4.96875 -0.875q1.53125 0 2.453125 -0.28125q-0.046875 1.40625 -0.046875 1.515625q0 0.140625 0.046875 0.640625l0.921875 11.875q3.765625 -6.578125 7.359375 -10.828125q2.546875 -3.015625 4.4375 -4.078125q-1.078125 2.96875 -2.3125 7.828125l-1.90625 7.5q-0.15625 0.625 -0.421875 1.828125l-0.375 1.671875q1.1875 0.28125 2.171875 0.28125q0.796875 0 1.703125 -0.1875l-0.203125 0.90625q-0.796875 0.140625 -1.234375 0.140625q-0.640625 0 -1.84375 -0.140625q-0.984375 -0.125 -1.75 -0.125q-0.8125 0 -1.84375 0.3125q0.859375 -2.25 1.796875 -6.046875l1.203125 -4.78125q0.765625 -3.09375 1.328125 -4.25q-1.25 1.421875 -3.859375 5.21875q-2.09375 3.0625 -4.6875 7.75l-1.359375 2.390625zm23.03125 -4.578125l0.515625 0.6875q-3.828125 3.640625 -6.5625 3.640625q-1.109375 0 -1.703125 -0.75q-0.578125 -0.75 -0.578125 -2.40625q0 -3.34375 2.03125 -6.65625q2.28125 -3.765625 5.453125 -3.765625q1.109375 0 1.6875 0.5625q0.59375 0.546875 0.59375 1.515625q0 1.015625 -0.703125 2.0q-0.703125 0.984375 -2.515625 2.046875q-0.90625 0.515625 -3.875 1.859375q-0.140625 0.84375 -0.140625 1.609375q0 1.109375 0.34375 1.546875q0.359375 0.4375 1.03125 0.4375q0.640625 0 1.40625 -0.359375q1.03125 -0.484375 3.015625 -1.96875zm-5.46875 -2.265625q2.515625 -1.125 3.78125 -2.421875q0.859375 -0.90625 0.859375 -1.796875q0 -0.671875 -0.359375 -1.0625q-0.34375 -0.40625 -0.90625 -0.40625q-0.578125 0 -1.125 0.4375q-0.734375 0.578125 -1.234375 1.75q-0.71875 1.71875 -1.015625 3.5zm15.015625 -6.96875q1.390625 0 2.140625 0.546875q0.765625 0.53125 0.765625 1.234375q0 0.421875 -0.328125 0.734375q-0.3125 0.3125 -0.765625 0.3125q-0.296875 0 -0.515625 -0.125q-0.21875 -0.140625 -0.625 -0.671875q-0.765625 -1.015625 -1.515625 -1.015625q-0.640625 0 -1.140625 0.5q-0.484375 0.484375 -0.484375 1.21875q0 0.640625 0.3125 1.25q0.3125 0.59375 1.578125 1.9375q1.734375 1.84375 1.734375 3.5q0 1.65625 -1.40625 2.90625q-1.40625 1.234375 -3.625 1.234375q-1.859375 0 -2.765625 -0.75q-0.90625 -0.765625 -0.90625 -1.875q0 -0.546875 0.34375 -0.90625q0.34375 -0.359375 0.84375 -0.359375q0.4375 0 0.75 0.296875q0.3125 0.28125 0.3125 0.671875q0 0.15625 -0.03125 0.40625q-0.015625 0.203125 -0.015625 0.34375q0 0.515625 0.4375 0.875q0.421875 0.359375 1.15625 0.359375q0.84375 0 1.484375 -0.28125q0.640625 -0.296875 1.0 -0.875q0.359375 -0.59375 0.359375 -1.171875q0 -0.5625 -0.34375 -1.125q-0.328125 -0.5625 -1.5 -1.859375q-1.625 -1.8125 -1.625 -3.484375q0 -1.53125 1.234375 -2.671875q1.234375 -1.15625 3.140625 -1.15625zm10.234375 0q1.390625 0 2.140625 0.546875q0.765625 0.53125 0.765625 1.234375q0 0.421875 -0.328125 0.734375q-0.3125 0.3125 -0.765625 0.3125q-0.296875 0 -0.515625 -0.125q-0.21875 -0.140625 -0.625 -0.671875q-0.765625 -1.015625 -1.515625 -1.015625q-0.640625 0 -1.140625 0.5q-0.484375 0.484375 -0.484375 1.21875q0 0.640625 0.3125 1.25q0.3125 0.59375 1.578125 1.9375q1.734375 1.84375 1.734375 3.5q0 1.65625 -1.40625 2.90625q-1.40625 1.234375 -3.625 1.234375q-1.859375 0 -2.765625 -0.75q-0.90625 -0.765625 -0.90625 -1.875q0 -0.546875 0.34375 -0.90625q0.34375 -0.359375 0.84375 -0.359375q0.4375 0 0.75 0.296875q0.3125 0.28125 0.3125 0.671875q0 0.15625 -0.03125 0.40625q-0.015625 0.203125 -0.015625 0.34375q0 0.515625 0.4375 0.875q0.421875 0.359375 1.15625 0.359375q0.84375 0 1.484375 -0.28125q0.640625 -0.296875 1.0 -0.875q0.359375 -0.59375 0.359375 -1.171875q0 -0.5625 -0.34375 -1.125q-0.328125 -0.5625 -1.5 -1.859375q-1.625 -1.8125 -1.625 -3.484375q0 -1.53125 1.234375 -2.671875q1.234375 -1.15625 3.140625 -1.15625zm14.03125 -0.25l1.03125 -0.21875l-1.171875 3.953125q-0.703125 2.359375 -1.328125 5.4375q-0.34375 1.671875 -0.34375 2.15625q0 0.484375 0.390625 0.484375q0.25 0 0.796875 -0.328125q0.96875 -0.578125 1.859375 -1.4375l0.5 0.609375q-1.78125 1.625 -2.28125 1.96875q-1.0 0.6875 -1.90625 1.015625q-0.59375 0.21875 -1.15625 0.21875q-0.40625 0 -0.609375 -0.1875q-0.203125 -0.1875 -0.203125 -0.546875q0 -0.234375 0.125 -0.640625l0.625 -2.125q-1.34375 1.609375 -3.203125 2.765625q-1.140625 0.71875 -2.09375 0.71875q-0.90625 0 -1.390625 -0.640625q-0.65625 -0.859375 -0.65625 -2.25q0 -1.65625 0.875 -3.6875q0.890625 -2.03125 2.375 -3.6875q1.484375 -1.65625 3.125 -2.4375q1.265625 -0.59375 3.25 -0.59375q0.5 0 1.015625 0.0625l0.375 -0.609375zm-1.9375 2.390625q-0.84375 -0.171875 -1.421875 -0.171875q-1.40625 0 -2.453125 0.78125q-1.046875 0.765625 -1.953125 2.78125q-0.890625 2.0 -0.890625 4.0q0 1.0625 0.359375 1.53125q0.359375 0.46875 0.9375 0.46875q1.078125 0 2.3125 -1.15625q1.234375 -1.171875 1.8125 -3.359375l1.296875 -4.875zm15.234375 -2.234375l1.265625 -0.28125q-1.140625 3.65625 -2.09375 7.328125q-0.6875 2.625 -0.953125 4.375q-0.140625 0.875 -0.15625 2.21875q-0.03125 2.25 -0.5 3.625q-0.65625 1.921875 -2.453125 3.09375q-1.78125 1.171875 -4.234375 1.171875q-2.109375 0 -3.328125 -1.0q-1.203125 -0.984375 -1.203125 -2.265625q0 -1.265625 0.96875 -2.359375q0.71875 -0.828125 3.0 -2.0q1.15625 -0.609375 2.171875 -1.25q-1.15625 0.59375 -1.796875 0.59375q-0.578125 0 -1.03125 -0.53125q-0.4375 -0.546875 -0.4375 -1.4375q0 -2.875 1.703125 -5.703125q1.71875 -2.84375 4.125 -4.265625q1.484375 -0.875 3.71875 -0.875q0.4375 0 1.078125 0.03125l0.15625 -0.46875zm-1.75 2.3125q-0.75 -0.140625 -1.328125 -0.140625q-1.484375 0 -2.546875 0.78125q-1.0625 0.78125 -1.8125 2.625q-1.046875 2.609375 -1.046875 4.390625q0 0.734375 0.40625 1.234375q0.421875 0.5 0.9375 0.5q0.625 0 1.546875 -0.59375q0.921875 -0.609375 1.5 -1.515625q0.59375 -0.90625 1.203125 -3.125l1.140625 -4.15625zm-2.125 8.515625q-1.0625 0.953125 -4.09375 3.046875q-2.671875 1.8125 -3.28125 2.609375q-0.609375 0.8125 -0.609375 1.71875q0 0.890625 0.78125 1.59375q0.796875 0.71875 1.921875 0.71875q1.0625 0 2.0625 -0.53125q1.0 -0.515625 1.734375 -1.515625q0.75 -0.984375 1.03125 -2.234375q0.28125 -1.25 0.296875 -3.3125q0.015625 -0.453125 0.15625 -2.09375zm14.34375 -1.5l0.515625 0.6875q-3.828125 3.640625 -6.5625 3.640625q-1.109375 0 -1.703125 -0.75q-0.578125 -0.75 -0.578125 -2.40625q0 -3.34375 2.03125 -6.65625q2.28125 -3.765625 5.453125 -3.765625q1.109375 0 1.6875 0.5625q0.59375 0.546875 0.59375 1.515625q0 1.015625 -0.703125 2.0q-0.703125 0.984375 -2.515625 2.046875q-0.90625 0.515625 -3.875 1.859375q-0.140625 0.84375 -0.140625 1.609375q0 1.109375 0.34375 1.546875q0.359375 0.4375 1.03125 0.4375q0.640625 0 1.40625 -0.359375q1.03125 -0.484375 3.015625 -1.96875zm-5.46875 -2.265625q2.515625 -1.125 3.78125 -2.421875q0.859375 -0.90625 0.859375 -1.796875q0 -0.671875 -0.359375 -1.0625q-0.34375 -0.40625 -0.90625 -0.40625q-0.578125 0 -1.125 0.4375q-0.734375 0.578125 -1.234375 1.75q-0.71875 1.71875 -1.015625 3.5zm23.984375 -2.75l-2.09375 8.296875q0.75 0.109375 1.203125 0.109375q0.6875 0 1.703125 -0.234375l-0.15625 0.765625q-1.046875 0.21875 -1.625 0.21875q-0.609375 0 -1.796875 -0.109375q-1.046875 -0.109375 -1.734375 -0.109375q-1.25 0 -2.890625 0.359375l0.234375 -0.875q1.71875 -0.4375 2.234375 -0.859375q0.78125 -0.671875 1.203125 -2.359375l2.1875 -8.734375q0.40625 -1.671875 0.40625 -1.96875q0 -0.28125 -0.203125 -0.421875q-0.1875 -0.140625 -0.765625 -0.125l0.203125 -0.75q1.578125 -0.015625 3.78125 -0.578125q-0.1875 0.59375 -0.484375 1.75l-1.171875 4.609375q0.75 0.15625 1.265625 0.15625q1.953125 0 3.34375 -1.359375q1.390625 -1.375 1.390625 -3.25q0 -1.453125 -1.125 -2.390625q-1.109375 -0.9375 -3.03125 -0.9375q-2.453125 0 -4.796875 1.1875q-2.34375 1.1875 -3.515625 2.953125q-1.171875 1.75 -1.171875 3.671875q0 1.453125 1.203125 2.5q0.609375 0.515625 0.75 0.75q0.140625 0.234375 0.140625 0.5q0 0.328125 -0.25 0.578125q-0.234375 0.234375 -0.578125 0.234375q-0.84375 0 -1.5 -0.984375q-0.84375 -1.28125 -0.84375 -3.15625q0 -2.40625 1.328125 -4.484375q1.328125 -2.078125 4.015625 -3.4375q2.703125 -1.359375 5.6875 -1.359375q2.78125 0 4.578125 1.046875q1.796875 1.046875 1.796875 3.09375q0 1.921875 -1.65625 3.578125q-1.640625 1.65625 -4.53125 2.125q0.71875 1.4375 0.921875 1.9375q0.328125 0.84375 1.0 2.84375q1.578125 4.703125 3.265625 6.625q1.25 1.40625 2.703125 1.40625q1.5 0 1.921875 -1.359375q0.25 -0.859375 0.46875 -1.0625q0.296875 -0.28125 0.671875 -0.28125q0.375 0 0.625 0.265625q0.265625 0.265625 0.265625 0.640625q0 0.96875 -1.0625 1.84375q-1.0625 0.875 -2.734375 0.875q-1.515625 0 -2.90625 -0.734375q-1.375 -0.734375 -2.6875 -2.40625q-1.296875 -1.671875 -2.265625 -4.015625q-0.484375 -1.171875 -1.421875 -4.296875q-0.5625 -1.90625 -0.703125 -2.28125l-0.390625 -0.03125q-0.140625 0 -0.40625 0.03125zm18.59375 5.015625l0.515625 0.6875q-3.828125 3.640625 -6.5625 3.640625q-1.109375 0 -1.703125 -0.75q-0.578125 -0.75 -0.578125 -2.40625q0 -3.34375 2.03125 -6.65625q2.28125 -3.765625 5.453125 -3.765625q1.109375 0 1.6875 0.5625q0.59375 0.546875 0.59375 1.515625q0 1.015625 -0.703125 2.0q-0.703125 0.984375 -2.515625 2.046875q-0.90625 0.515625 -3.875 1.859375q-0.140625 0.84375 -0.140625 1.609375q0 1.109375 0.34375 1.546875q0.359375 0.4375 1.03125 0.4375q0.640625 0 1.40625 -0.359375q1.03125 -0.484375 3.015625 -1.96875zm-5.46875 -2.265625q2.515625 -1.125 3.78125 -2.421875q0.859375 -0.90625 0.859375 -1.796875q0 -0.671875 -0.359375 -1.0625q-0.34375 -0.40625 -0.90625 -0.40625q-0.578125 0 -1.125 0.4375q-0.734375 0.578125 -1.234375 1.75q-0.71875 1.71875 -1.015625 3.5zm18.8125 -7.21875l1.03125 -0.21875l-1.171875 3.953125q-0.703125 2.359375 -1.328125 5.4375q-0.34375 1.671875 -0.34375 2.15625q0 0.484375 0.390625 0.484375q0.25 0 0.796875 -0.328125q0.96875 -0.578125 1.859375 -1.4375l0.5 0.609375q-1.78125 1.625 -2.28125 1.96875q-1.0 0.6875 -1.90625 1.015625q-0.59375 0.21875 -1.15625 0.21875q-0.40625 0 -0.609375 -0.1875q-0.203125 -0.1875 -0.203125 -0.546875q0 -0.234375 0.125 -0.640625l0.625 -2.125q-1.34375 1.609375 -3.203125 2.765625q-1.140625 0.71875 -2.09375 0.71875q-0.90625 0 -1.390625 -0.640625q-0.65625 -0.859375 -0.65625 -2.25q0 -1.65625 0.875 -3.6875q0.890625 -2.03125 2.375 -3.6875q1.484375 -1.65625 3.125 -2.4375q1.265625 -0.59375 3.25 -0.59375q0.5 0 1.015625 0.0625l0.375 -0.609375zm-1.9375 2.390625q-0.84375 -0.171875 -1.421875 -0.171875q-1.40625 0 -2.453125 0.78125q-1.046875 0.765625 -1.953125 2.78125q-0.890625 2.0 -0.890625 4.0q0 1.0625 0.359375 1.53125q0.359375 0.46875 0.9375 0.46875q1.078125 0 2.3125 -1.15625q1.234375 -1.171875 1.8125 -3.359375l1.296875 -4.875zm16.75 7.78125l0.4375 0.59375q-2.09375 1.765625 -3.109375 2.34375q-1.40625 0.796875 -2.21875 0.796875q-0.375 0 -0.609375 -0.21875q-0.234375 -0.203125 -0.234375 -0.46875q0 -0.265625 0.171875 -0.875l0.546875 -1.90625q-1.875 2.015625 -3.125 2.734375q-1.25 0.71875 -2.25 0.71875q-0.828125 0 -1.390625 -0.71875q-0.5625 -0.734375 -0.5625 -2.140625q0 -2.21875 1.515625 -5.09375q1.53125 -2.890625 3.390625 -4.265625q1.875 -1.390625 3.421875 -1.390625q0.34375 0 1.03125 0.109375q0.734375 -3.046875 1.40625 -4.4375q0.671875 -1.40625 1.734375 -2.421875q1.0625 -1.015625 2.421875 -1.5625q1.375 -0.5625 2.5625 -0.5625q0.625 0 1.0 0.328125q0.375 0.328125 0.375 0.828125q0 0.484375 -0.34375 0.796875q-0.34375 0.296875 -0.9375 0.296875q-0.390625 0 -1.453125 -0.15625q-1.0625 -0.15625 -1.453125 -0.15625q-0.546875 0 -0.96875 0.34375q-0.40625 0.328125 -0.78125 1.4375q-0.25 0.703125 -1.140625 4.484375l-2.21875 9.4375q-0.390625 1.671875 -0.390625 2.21875q0 0.59375 0.453125 0.59375q0.28125 0 0.65625 -0.203125q0.53125 -0.296875 2.0625 -1.484375zm-3.3125 -8.0625q-1.25 -0.28125 -1.765625 -0.28125q-1.046875 0 -2.046875 0.828125q-1.0 0.8125 -1.9375 3.171875q-0.921875 2.359375 -0.921875 4.109375q0 0.796875 0.421875 1.3125q0.4375 0.5 0.984375 0.5q0.65625 0 1.5 -0.578125q1.203125 -0.859375 1.90625 -2.09375q0.421875 -0.78125 1.140625 -3.828125l0.71875 -3.140625z" fill-rule="nonzero"></path><path fill="#000000" fill-opacity="0.0" d="m343.51968 165.87927l82.23624 0l0 63.55905l-82.23624 0z" fill-rule="evenodd"></path><path fill="#000000" d="m364.98843 213.27927l0 -5.765625l-11.71875 0l0 -4.796875l12.421875 -18.1875l4.609375 0l0 18.15625l3.546875 0l0 4.828125l-3.546875 0l0 5.765625l-5.3125 0zm0 -10.59375l0 -9.78125l-6.59375 9.78125l6.59375 0zm11.277344 3.0l5.3125 -0.65625q0.265625 2.03125 1.375 3.109375q1.109375 1.078125 2.6875 1.078125q1.703125 0 2.859375 -1.28125q1.171875 -1.296875 1.171875 -3.484375q0 -2.078125 -1.125 -3.28125q-1.109375 -1.21875 -2.703125 -1.21875q-1.0625 0 -2.515625 0.421875l0.59375 -4.484375q2.234375 0.0625 3.40625 -0.953125q1.171875 -1.03125 1.171875 -2.734375q0 -1.4375 -0.859375 -2.296875q-0.859375 -0.859375 -2.28125 -0.859375q-1.40625 0 -2.40625 0.984375q-1.0 0.96875 -1.21875 2.84375l-5.046875 -0.859375q0.515625 -2.609375 1.578125 -4.15625q1.078125 -1.546875 2.96875 -2.4375q1.90625 -0.890625 4.28125 -0.890625q4.03125 0 6.484375 2.578125q2.0 2.109375 2.0 4.765625q0 3.765625 -4.109375 6.015625q2.453125 0.53125 3.921875 2.375q1.484375 1.828125 1.484375 4.421875q0 3.765625 -2.765625 6.421875q-2.75 2.65625 -6.84375 2.65625q-3.890625 0 -6.453125 -2.234375q-2.546875 -2.234375 -2.96875 -5.84375z" fill-rule="nonzero"></path><path fill="#000000" fill-opacity="0.0" d="m343.51968 277.87927l82.23624 0l0 63.55905l-82.23624 0z" fill-rule="evenodd"></path><path fill="#000000" d="m364.98843 325.27927l0 -5.765625l-11.71875 0l0 -4.796875l12.421875 -18.1875l4.609375 0l0 18.15625l3.546875 0l0 4.828125l-3.546875 0l0 5.765625l-5.3125 0zm0 -10.59375l0 -9.78125l-6.59375 9.78125l6.59375 0zm20.761719 -18.15625q4.15625 0 6.5 2.96875q2.796875 3.515625 2.796875 11.65625q0 8.125 -2.8125 11.6875q-2.328125 2.921875 -6.484375 2.921875q-4.1875 0 -6.75 -3.203125q-2.546875 -3.21875 -2.546875 -11.46875q0 -8.078125 2.8125 -11.640625q2.3125 -2.921875 6.484375 -2.921875zm0 4.546875q-1.0 0 -1.78125 0.640625q-0.78125 0.625 -1.21875 2.265625q-0.5625 2.140625 -0.5625 7.171875q0 5.046875 0.5 6.9375q0.515625 1.875 1.28125 2.5q0.78125 0.625 1.78125 0.625q0.984375 0 1.765625 -0.625q0.78125 -0.640625 1.21875 -2.28125q0.5625 -2.109375 0.5625 -7.15625q0 -5.03125 -0.515625 -6.921875q-0.5 -1.890625 -1.28125 -2.515625q-0.765625 -0.640625 -1.75 -0.640625z" fill-rule="nonzero"></path><path fill="#ff9900" d="m477.3848 412.86826l0 0c0 -19.4039 15.72998 -35.13385 35.13388 -35.13385l0 0c9.318054 0 18.254517 3.7015686 24.843384 10.290466c6.588867 6.588867 10.290466 15.525299 10.290466 24.843384l0 0c0 19.4039 -15.72998 35.13385 -35.13385 35.13385l0 0c-19.4039 0 -35.13388 -15.72995 -35.13388 -35.13385z" fill-rule="evenodd"></path><path fill="#000000" fill-opacity="0.0" d="m471.1795 277.87927l82.236206 0l0 63.55905l-82.236206 0z" fill-rule="evenodd"></path><path fill="#000000" d="m502.52026 325.27927l0 -5.765625l-11.71875 0l0 -4.796875l12.421875 -18.1875l4.609375 0l0 18.15625l3.546875 0l0 4.828125l-3.546875 0l0 5.765625l-5.3125 0zm0 -10.59375l0 -9.78125l-6.59375 9.78125l6.59375 0zm20.761719 -18.15625q4.15625 0 6.5 2.96875q2.796875 3.515625 2.796875 11.65625q0 8.125 -2.8125 11.6875q-2.328125 2.921875 -6.484375 2.921875q-4.1875 0 -6.75 -3.203125q-2.546875 -3.21875 -2.546875 -11.46875q0 -8.078125 2.8125 -11.640625q2.3125 -2.921875 6.484375 -2.921875zm0 4.546875q-1.0 0 -1.78125 0.640625q-0.78125 0.625 -1.21875 2.265625q-0.5625 2.140625 -0.5625 7.171875q0 5.046875 0.5 6.9375q0.515625 1.875 1.28125 2.5q0.78125 0.625 1.78125 0.625q0.984375 0 1.765625 -0.625q0.78125 -0.640625 1.21875 -2.28125q0.5625 -2.109375 0.5625 -7.15625q0 -5.03125 -0.515625 -6.921875q-0.5 -1.890625 -1.28125 -2.515625q-0.765625 -0.640625 -1.75 -0.640625z" fill-rule="nonzero"></path><path fill="#000000" fill-opacity="0.0" d="m471.1795 377.87927l82.236206 0l0 63.55905l-82.236206 0z" fill-rule="evenodd"></path><path fill="#000000" d="m512.15894 396.52927q4.15625 0 6.5 2.96875q2.796875 3.515625 2.796875 11.65625q0 8.125 -2.8125 11.6875q-2.328125 2.921875 -6.484375 2.921875q-4.1875 0 -6.75 -3.203125q-2.546875 -3.21875 -2.546875 -11.46875q0 -8.078125 2.8125 -11.640625q2.3125 -2.921875 6.484375 -2.921875zm0 4.546875q-1.0 0 -1.78125 0.640625q-0.78125 0.625 -1.21875 2.265625q-0.5625 2.140625 -0.5625 7.171875q0 5.046875 0.5 6.9375q0.515625 1.875 1.28125 2.5q0.78125 0.625 1.78125 0.625q0.984375 0 1.765625 -0.625q0.78125 -0.640625 1.21875 -2.28125q0.5625 -2.109375 0.5625 -7.15625q0 -5.03125 -0.515625 -6.921875q-0.5 -1.890625 -1.28125 -2.515625q-0.765625 -0.640625 -1.75 -0.640625z" fill-rule="nonzero"></path><path fill="#ff9900" d="m612.29974 200.52808l0 0c0 -19.4039 15.72998 -35.133865 35.13385 -35.133865l0 0c9.318115 0 18.254517 3.7015991 24.843384 10.290466c6.588928 6.5888824 10.290466 15.525314 10.290466 24.8434l0 0c0 19.403885 -15.729919 35.13385 -35.13385 35.13385l0 0c-19.40387 0 -35.13385 -15.729965 -35.13385 -35.13385z" fill-rule="evenodd"></path><path fill="#000000" fill-opacity="0.0" d="m615.5197 165.87927l82.236206 0l0 63.55905l-82.236206 0z" fill-rule="evenodd"></path><path fill="#000000" d="m636.98846 213.27927l0 -5.765625l-11.71875 0l0 -4.796875l12.421875 -18.1875l4.609375 0l0 18.15625l3.546875 0l0 4.828125l-3.546875 0l0 5.765625l-5.3125 0zm0 -10.59375l0 -9.78125l-6.59375 9.78125l6.59375 0zm20.761719 -18.15625q4.15625 0 6.5 2.96875q2.796875 3.515625 2.796875 11.65625q0 8.125 -2.8125 11.6875q-2.328125 2.921875 -6.484375 2.921875q-4.1875 0 -6.75 -3.203125q-2.546875 -3.21875 -2.546875 -11.46875q0 -8.078125 2.8125 -11.640625q2.3125 -2.921875 6.484375 -2.921875zm0 4.546875q-1.0 0 -1.78125 0.640625q-0.78125 0.625 -1.21875 2.265625q-0.5625 2.140625 -0.5625 7.171875q0 5.046875 0.5 6.9375q0.515625 1.875 1.28125 2.5q0.78125 0.625 1.78125 0.625q0.984375 0 1.765625 -0.625q0.78125 -0.640625 1.21875 -2.28125q0.5625 -2.109375 0.5625 -7.15625q0 -5.03125 -0.515625 -6.921875q-0.5 -1.890625 -1.28125 -2.515625q-0.765625 -0.640625 -1.75 -0.640625z" fill-rule="nonzero"></path><path fill="#ff9900" d="m604.29974 512.5281l0 0c0 -19.4039 15.72998 -35.13385 35.13385 -35.13385l0 0c9.318115 0 18.254517 3.7015686 24.843384 10.290466c6.588928 6.588867 10.290466 15.525299 10.290466 24.843384l0 0c0 19.40387 -15.729919 35.13385 -35.13385 35.13385l0 0c-19.40387 0 -35.13385 -15.72998 -35.13385 -35.13385z" fill-rule="evenodd"></path><path fill="#000000" fill-opacity="0.0" d="m471.1795 477.87927l82.236206 0l0 63.55902l-82.236206 0z" fill-rule="evenodd"></path><path fill="#000000" d="m510.2859 520.1855l0 5.09375l-19.234375 0q0.3125 -2.890625 1.875 -5.46875q1.5625 -2.59375 6.171875 -6.875q3.703125 -3.4530945 4.546875 -4.6874695q1.140625 -1.703125 1.140625 -3.359375q0 -1.84375 -1.0 -2.828125q-0.984375 -0.984375 -2.71875 -0.984375q-1.71875 0 -2.734375 1.046875q-1.015625 1.03125 -1.171875 3.421875l-5.46875 -0.546875q0.484375 -4.53125 3.0625 -6.5q2.578125 -1.96875 6.453125 -1.96875q4.234375 0 6.65625 2.28125q2.421875 2.28125 2.421875 5.6875q0 1.9375 -0.703125 3.6875q-0.6875 1.734375 -2.1875 3.65625q-1.0 1.2655945 -3.59375 3.6562195q-2.59375 2.375 -3.296875 3.15625q-0.6875 0.78125 -1.109375 1.53125l10.890625 0zm12.996094 -23.65622q4.15625 0 6.5 2.96875q2.796875 3.515625 2.796875 11.65625q0 8.1249695 -2.8125 11.6874695q-2.328125 2.921875 -6.484375 2.921875q-4.1875 0 -6.75 -3.203125q-2.546875 -3.21875 -2.546875 -11.4687195q0 -8.078125 2.8125 -11.640625q2.3125 -2.921875 6.484375 -2.921875zm0 4.546875q-1.0 0 -1.78125 0.640625q-0.78125 0.625 -1.21875 2.265625q-0.5625 2.140625 -0.5625 7.171875q0 5.0468445 0.5 6.9374695q0.515625 1.875 1.28125 2.5q0.78125 0.625 1.78125 0.625q0.984375 0 1.765625 -0.625q0.78125 -0.640625 1.21875 -2.28125q0.5625 -2.109375 0.5625 -7.1562195q0 -5.03125 -0.515625 -6.921875q-0.5 -1.890625 -1.28125 -2.515625q-0.765625 -0.640625 -1.75 -0.640625z" fill-rule="nonzero"></path><path fill="#000000" fill-opacity="0.0" d="m607.5197 477.87927l82.236206 0l0 63.55902l-82.236206 0z" fill-rule="evenodd"></path><path fill="#000000" d="m632.2697 525.27924l-5.5 0l0 -20.68747q-3.0 2.8125 -7.078125 4.15625l0 -4.96875q2.140625 -0.703125 4.65625 -2.671875q2.53125 -1.96875 3.46875 -4.578125l4.453125 0l0 28.74997zm8.277344 -7.359375l5.46875 -0.578125q0.234375 1.859375 1.375 2.953125q1.15625 1.078125 2.671875 1.078125q1.71875 0 2.90625 -1.390625q1.1875 -1.40625 1.1875 -4.21875q0 -2.640625 -1.1875 -3.9530945q-1.171875 -1.3125 -3.0625 -1.3125q-2.375 0 -4.25 2.0780945l-4.453125 -0.6405945l2.8125 -14.90625l14.515625 0l0 5.140625l-10.34375 0l-0.859375 4.859375q1.828125 -0.90625 3.75 -0.90625q3.640625 0 6.171875 2.65625q2.546875 2.65625 2.546875 6.8905945q0 3.53125 -2.046875 6.3125q-2.796875 3.78125 -7.75 3.78125q-3.96875 0 -6.46875 -2.125q-2.5 -2.125 -2.984375 -5.71875z" fill-rule="nonzero"></path><path fill="#000000" fill-opacity="0.0" d="m607.5197 589.8793l82.236206 0l0 63.55902l-82.236206 0z" fill-rule="evenodd"></path><path fill="#000000" d="m632.2697 637.27924l-5.5 0l0 -20.6875q-3.0 2.8125 -7.078125 4.15625l0 -4.96875q2.140625 -0.703125 4.65625 -2.671875q2.53125 -1.96875 3.46875 -4.578125l4.453125 0l0 28.75zm17.480469 -28.75q4.15625 0 6.5 2.96875q2.796875 3.515625 2.796875 11.65625q0 8.125 -2.8125 11.6875q-2.328125 2.921875 -6.484375 2.921875q-4.1875 0 -6.75 -3.203125q-2.546875 -3.21875 -2.546875 -11.46875q0 -8.078125 2.8125 -11.640625q2.3125 -2.921875 6.484375 -2.921875zm0 4.546875q-1.0 0 -1.78125 0.640625q-0.78125 0.625 -1.21875 2.265625q-0.5625 2.140625 -0.5625 7.171875q0 5.046875 0.5 6.9375q0.515625 1.875 1.28125 2.5q0.78125 0.625 1.78125 0.625q0.984375 0 1.765625 -0.625q0.78125 -0.640625 1.21875 -2.28125q0.5625 -2.109375 0.5625 -7.15625q0 -5.03125 -0.515625 -6.921875q-0.5 -1.890625 -1.28125 -2.515625q-0.765625 -0.640625 -1.75 -0.640625z" fill-rule="nonzero"></path></g></svg>

