<?xml version="1.0" encoding="UTF-8" standalone="no"?>
<svg
   xmlns:dc="http://purl.org/dc/elements/1.1/"
   xmlns:cc="http://creativecommons.org/ns#"
   xmlns:rdf="http://www.w3.org/1999/02/22-rdf-syntax-ns#"
   xmlns:svg="http://www.w3.org/2000/svg"
   xmlns="http://www.w3.org/2000/svg"
   xmlns:xlink="http://www.w3.org/1999/xlink"
   xmlns:sodipodi="http://sodipodi.sourceforge.net/DTD/sodipodi-0.dtd"
   xmlns:inkscape="http://www.inkscape.org/namespaces/inkscape"
   width="1024"
   height="768"
   version="1.1"
   id="svg250"
   sodipodi:docname="swindon-basic.svg"
   inkscape:version="0.92.0 r15299">
  <metadata
     id="metadata256">
    <rdf:RDF>
      <cc:Work
         rdf:about="">
        <dc:format>image/svg+xml</dc:format>
        <dc:type
           rdf:resource="http://purl.org/dc/dcmitype/StillImage" />
        <dc:title></dc:title>
      </cc:Work>
    </rdf:RDF>
  </metadata>
  <defs
     id="defs254" />
  <sodipodi:namedview
     pagecolor="#ffffff"
     bordercolor="#666666"
     borderopacity="1"
     objecttolerance="10"
     gridtolerance="10"
     guidetolerance="10"
     inkscape:pageopacity="0"
     inkscape:pageshadow="2"
     inkscape:window-width="2396"
     inkscape:window-height="1740"
     id="namedview252"
     showgrid="false"
     inkscape:zoom="0.6790357"
     inkscape:cx="42.136134"
     inkscape:cy="528.99564"
     inkscape:window-x="0"
     inkscape:window-y="56"
     inkscape:window-maximized="0"
     inkscape:current-layer="svg250" />
  <g
     id="g248"
     transform="matrix(0.7719126,0,0,0.7719126,2,19.959937)">
    <path
       d="M 0,0 H 1323.2 V 932.8 H 0 Z"
       id="path2"
       inkscape:connector-curvature="0"
       style="fill:#ffffff" />
    <path
       d="m 220,152 c 3.2,-16 20.8,-32 40,-32 24,0 40,16 40,44.8 0,43.2 -56,62.4 -80,115.2 -24,-52.8 -80,-72 -80,-115.2 0,-28.8 16,-44.8 40,-44.8 19.2,0 36.8,16 40,32 z m 0,220 c 3.2,-16 20.8,-32 40,-32 24,0 40,16 40,44.8 0,43.2 -56,62.4 -80,115.2 -24,-52.8 -80,-72 -80,-115.2 0,-28.8 16,-44.8 40,-44.8 19.2,0 36.8,16 40,32 z m 0,220 c 3.2,-16 20.8,-32 40,-32 24,0 40,16 40,44.8 0,43.2 -56,62.4 -80,115.2 -24,-52.8 -80,-72 -80,-115.2 0,-28.8 16,-44.8 40,-44.8 19.2,0 36.8,16 40,32 z"
       id="path4"
       inkscape:connector-curvature="0"
       style="fill:#ffffff;stroke:#000000;stroke-width:5" />
    <path
       d="m 284.56,203.73 h 77.72 V 260 H 440"
       id="path6"
       inkscape:connector-curvature="0"
       style="fill:none;stroke:#000000;stroke-width:5" />
    <path
       d="m 284.56,206.23 h -3 v -0.6 l 2.44,-2.78 0.56,-0.7 z M 440,260 l -14.27,4.64 v -9.28 z"
       id="path8"
       inkscape:connector-curvature="0" />
    <path
       d="m 441.32,257.8 -1.32,2.2 1.32,2.2 -18.1,5.88 v -16.16 z m -13.1,3.4 3.7,-1.2 -3.7,-1.2 z"
       id="path10"
       inkscape:connector-curvature="0" />
    <path
       d="m 286.27,420 h 76.87 V 560 H 440"
       id="path12"
       inkscape:connector-curvature="0"
       style="fill:none;stroke:#000000;stroke-width:5" />
    <path
       d="m 286.27,422.5 h -2 l 2,-2.5 z M 440,560 l -14.27,4.64 v -9.28 z"
       id="path14"
       inkscape:connector-curvature="0" />
    <path
       d="m 441.32,557.8 -1.32,2.2 1.32,2.2 -18.1,5.88 v -16.16 z m -13.1,3.4 3.7,-1.2 -3.7,-1.2 z"
       id="path16"
       inkscape:connector-curvature="0" />
    <path
       d="m 286.27,640 h 76.87 V 560 H 440"
       id="path18"
       inkscape:connector-curvature="0"
       style="fill:none;stroke:#000000;stroke-width:5" />
    <path
       d="m 286.27,642.5 h -2 l 2,-2.5 z M 440,560 l -14.27,4.64 v -9.28 z"
       id="path20"
       inkscape:connector-curvature="0" />
    <path
       d="m 441.32,557.8 -1.32,2.2 1.32,2.2 -18.1,5.88 v -16.16 z m -13.1,3.4 3.7,-1.2 -3.7,-1.2 z"
       id="path22"
       inkscape:connector-curvature="0" />
    <path
       d="m 920,673.88 h 144 v 146.4 c -24,-24.4 -39,-24.4 -48,-24.4 -14.4,0 -33.6,24.4 -48,24.4 -9,0 -24,0 -48,-24.4 z"
       id="path24"
       inkscape:connector-curvature="0"
       style="fill:#ffffff;stroke:#000000;stroke-width:5" />
    <path
       d="m 928,686.8 h 144 v 146.4 c -24,-24.4 -39,-24.4 -48,-24.4 -14.4,0 -33.6,24.4 -48,24.4 -9,0 -24,0 -48,-24.4 z"
       id="path26"
       inkscape:connector-curvature="0"
       style="fill:#ffffff;stroke:#000000;stroke-width:5" />
    <path
       d="m 936,699.72 h 144 v 146.4 c -24,-24.4 -39,-24.4 -48,-24.4 -14.4,0 -33.6,24.4 -48,24.4 -9,0 -24,0 -48,-24.4 z"
       id="path28"
       inkscape:connector-curvature="0"
       style="fill:#ffffff;stroke:#000000;stroke-width:5" />
    <use
       xlink:href="#a"
       transform="translate(943.31481,730.10654)"
       id="use30"
       x="0"
       y="0"
       width="100%"
       height="100%" />
    <use
       xlink:href="#b"
       transform="translate(952.69136,767.43987)"
       id="use32"
       x="0"
       y="0"
       width="100%"
       height="100%" />
    <use
       xlink:href="#c"
       transform="translate(999.35802,804.7732)"
       id="use34"
       x="0"
       y="0"
       width="100%"
       height="100%" />
    <path
       d="m 920,513.88 h 144 v 146.4 c -24,-24.4 -39,-24.4 -48,-24.4 -14.4,0 -33.6,24.4 -48,24.4 -9,0 -24,0 -48,-24.4 z"
       id="path36"
       inkscape:connector-curvature="0"
       style="fill:#ffffff;stroke:#000000;stroke-width:5" />
    <path
       d="m 928,526.8 h 144 v 146.4 c -24,-24.4 -39,-24.4 -48,-24.4 -14.4,0 -33.6,24.4 -48,24.4 -9,0 -24,0 -48,-24.4 z"
       id="path38"
       inkscape:connector-curvature="0"
       style="fill:#ffffff;stroke:#000000;stroke-width:5" />
    <path
       d="m 936,539.72 h 144 v 146.4 c -24,-24.4 -39,-24.4 -48,-24.4 -14.4,0 -33.6,24.4 -48,24.4 -9,0 -24,0 -48,-24.4 z"
       id="path40"
       inkscape:connector-curvature="0"
       style="fill:#ffffff;stroke:#000000;stroke-width:5" />
    <use
       xlink:href="#a"
       transform="translate(943.31481,570.10654)"
       id="use42"
       x="0"
       y="0"
       width="100%"
       height="100%" />
    <use
       xlink:href="#b"
       transform="translate(952.69136,607.43987)"
       id="use44"
       x="0"
       y="0"
       width="100%"
       height="100%" />
    <use
       xlink:href="#d"
       transform="translate(999.35802,644.7732)"
       id="use46"
       x="0"
       y="0"
       width="100%"
       height="100%" />
    <path
       d="m 720,120 h 160 v 120 c -26.67,-20 -43.33,-20 -53.33,-20 -16,0 -37.34,20 -53.34,20 -10,0 -26.66,0 -53.33,-20 z"
       id="path48"
       inkscape:connector-curvature="0"
       style="fill:#ffffff;stroke:#000000;stroke-width:5" />
    <use
       xlink:href="#e"
       transform="translate(733.84568,176.22222)"
       id="use50"
       x="0"
       y="0"
       width="100%"
       height="100%" />
    <use
       xlink:href="#f"
       transform="translate(848.87037,176.22222)"
       id="use52"
       x="0"
       y="0"
       width="100%"
       height="100%" />
    <path
       d="m 720,260 h 160 v 120 c -26.67,-20 -43.33,-20 -53.33,-20 -16,0 -37.34,20 -53.34,20 -10,0 -26.66,0 -53.33,-20 z"
       id="path54"
       inkscape:connector-curvature="0"
       style="fill:#ffffff;stroke:#000000;stroke-width:5" />
    <use
       xlink:href="#e"
       transform="translate(733.84568,316.22222)"
       id="use56"
       x="0"
       y="0"
       width="100%"
       height="100%" />
    <use
       xlink:href="#g"
       transform="translate(848.87037,316.22222)"
       id="use58"
       x="0"
       y="0"
       width="100%"
       height="100%" />
    <path
       d="m 720,420 h 160 v 120 c -26.67,-20 -43.33,-20 -53.33,-20 -16,0 -37.34,20 -53.34,20 -10,0 -26.66,0 -53.33,-20 z"
       id="path60"
       inkscape:connector-curvature="0"
       style="fill:#ffffff;stroke:#000000;stroke-width:5" />
    <use
       xlink:href="#e"
       transform="translate(733.84568,476.22222)"
       id="use62"
       x="0"
       y="0"
       width="100%"
       height="100%" />
    <use
       xlink:href="#h"
       transform="translate(848.87037,476.22222)"
       id="use64"
       x="0"
       y="0"
       width="100%"
       height="100%" />
    <path
       d="m 476,200 h 108 l 36,60 -36,60 H 476 l -36,-60 z"
       id="path66"
       inkscape:connector-curvature="0"
       style="fill:#ffffff;stroke:#000000;stroke-width:5" />
    <use
       xlink:href="#i"
       transform="translate(465.35802,266.22222)"
       id="use68"
       x="0"
       y="0"
       width="100%"
       height="100%" />
    <path
       d="m 476,500 h 108 l 36,60 -36,60 H 476 l -36,-60 z"
       id="path70"
       inkscape:connector-curvature="0"
       style="fill:#ffffff;stroke:#000000;stroke-width:5" />
    <use
       xlink:href="#i"
       transform="translate(465.35802,566.22222)"
       id="use72"
       x="0"
       y="0"
       width="100%"
       height="100%" />
    <path
       d="m 620,260 h 50 v -80 h 50"
       id="path74"
       inkscape:connector-curvature="0"
       style="fill:none;stroke:#000000;stroke-width:5" />
    <path
       d="m 620,262.5 h -1.5 l 1.5,-2.5 -1.5,-2.5 h 1.5 z m 100,-82.5 -14.27,4.64 v -9.28 z"
       id="path76"
       inkscape:connector-curvature="0" />
    <path
       d="m 720,177.37 v 5.26 l -16.77,5.45 v -16.16 z m -11.77,3.82 3.68,-1.2 -3.67,-1.2 z"
       id="path78"
       inkscape:connector-curvature="0" />
    <path
       d="m 620,260 h 50 v 60 h 50"
       id="path80"
       inkscape:connector-curvature="0"
       style="fill:none;stroke:#000000;stroke-width:5" />
    <path
       d="m 620,262.5 h -1.5 l 1.5,-2.5 -1.5,-2.5 h 1.5 z m 100,57.5 -14.27,4.64 v -9.28 z"
       id="path82"
       inkscape:connector-curvature="0" />
    <path
       d="m 720,317.37 v 5.26 l -16.77,5.45 v -16.16 z m -11.77,3.82 3.68,-1.2 -3.67,-1.2 z"
       id="path84"
       inkscape:connector-curvature="0" />
    <path
       d="m 620,260 h 50 v 220 h 50"
       id="path86"
       inkscape:connector-curvature="0"
       style="fill:none;stroke:#000000;stroke-width:5" />
    <path
       d="m 620,262.5 h -1.5 l 1.5,-2.5 -1.5,-2.5 h 1.5 z m 100,217.5 -14.27,4.64 v -9.28 z"
       id="path88"
       inkscape:connector-curvature="0" />
    <path
       d="m 720,477.37 v 5.26 l -16.77,5.45 v -16.16 z m -11.77,3.82 3.68,-1.2 -3.67,-1.2 z"
       id="path90"
       inkscape:connector-curvature="0" />
    <path
       d="m 620,560 h 50 V 180 h 50"
       id="path92"
       inkscape:connector-curvature="0"
       style="fill:none;stroke:#000000;stroke-width:5" />
    <path
       d="M 634.27,564.64 620,560 l 14.27,-4.64 z"
       id="path94"
       inkscape:connector-curvature="0" />
    <path
       d="m 636.77,568.08 -18.1,-5.88 1.33,-2.2 -1.32,-2.2 18.1,-5.88 z m -8.67,-8.08 3.67,1.2 v -2.4 z m 91.9,-380 -14.27,4.64 v -9.28 z"
       id="path96"
       inkscape:connector-curvature="0" />
    <path
       d="m 720,177.37 v 5.26 l -16.77,5.45 v -16.16 z m -11.77,3.82 3.68,-1.2 -3.67,-1.2 z"
       id="path98"
       inkscape:connector-curvature="0" />
    <path
       d="m 620,560 h 50 v -80 h 50"
       id="path100"
       inkscape:connector-curvature="0"
       style="fill:none;stroke:#000000;stroke-width:5" />
    <path
       d="M 634.27,564.64 620,560 l 14.27,-4.64 z"
       id="path102"
       inkscape:connector-curvature="0" />
    <path
       d="m 636.77,568.08 -18.1,-5.88 1.33,-2.2 -1.32,-2.2 18.1,-5.88 z m -8.67,-8.08 3.67,1.2 v -2.4 z m 91.9,-80 -14.27,4.64 v -9.28 z"
       id="path104"
       inkscape:connector-curvature="0" />
    <path
       d="m 720,477.37 v 5.26 l -16.77,5.45 v -16.16 z m -11.77,3.82 3.68,-1.2 -3.67,-1.2 z"
       id="path106"
       inkscape:connector-curvature="0" />
    <path
       d="m 620,560 h 50 V 320 h 50"
       id="path108"
       inkscape:connector-curvature="0"
       style="fill:none;stroke:#000000;stroke-width:5" />
    <path
       d="M 634.27,564.64 620,560 l 14.27,-4.64 z"
       id="path110"
       inkscape:connector-curvature="0" />
    <path
       d="m 636.77,568.08 -18.1,-5.88 1.33,-2.2 -1.32,-2.2 18.1,-5.88 z m -8.67,-8.08 3.67,1.2 v -2.4 z m 91.9,-240 -14.27,4.64 v -9.28 z"
       id="path112"
       inkscape:connector-curvature="0" />
    <path
       d="m 720,317.37 v 5.26 l -16.77,5.45 v -16.16 z m -11.77,3.82 3.68,-1.2 -3.67,-1.2 z"
       id="path114"
       inkscape:connector-curvature="0" />
    <path
       d="m 620,260 h 50 v 338.56 h 249"
       id="path116"
       inkscape:connector-curvature="0"
       style="fill:none;stroke:#000000;stroke-width:5" />
    <path
       d="M 634.27,264.64 620,260 l 14.27,-4.64 z"
       id="path118"
       inkscape:connector-curvature="0" />
    <path
       d="m 636.77,268.08 -18.1,-5.88 1.33,-2.2 -1.32,-2.2 18.1,-5.88 z m -8.67,-8.08 3.67,1.2 v -2.4 z M 919,598.56 904.73,603.2 v -9.27 z"
       id="path120"
       inkscape:connector-curvature="0" />
    <path
       d="m 920,596.26 v 4.6 l -17.77,5.78 V 590.5 Z m -12.77,3.5 3.68,-1.2 -3.67,-1.2 z"
       id="path122"
       inkscape:connector-curvature="0" />
    <path
       d="m 620,560 h 50 v 200 h 250"
       id="path124"
       inkscape:connector-curvature="0"
       style="fill:none;stroke:#000000;stroke-width:5" />
    <path
       d="M 634.27,564.64 620,560 l 14.27,-4.64 z"
       id="path126"
       inkscape:connector-curvature="0" />
    <path
       d="m 636.77,568.08 -18.1,-5.88 1.33,-2.2 -1.32,-2.2 18.1,-5.88 z m -8.67,-8.08 3.67,1.2 v -2.4 z m 291.9,200 -14.27,4.64 v -9.28 z"
       id="path128"
       inkscape:connector-curvature="0" />
    <path
       d="m 920,757.37 v 5.26 l -16.77,5.45 v -16.16 z m -11.77,3.82 3.68,-1.2 -3.67,-1.2 z"
       id="path130"
       inkscape:connector-curvature="0" />
    <path
       d="m 1180,188 c 0,6.63 -26.86,12 -60,12 -33.14,0 -60,-5.37 -60,-12 V 92 c 0,-6.63 26.86,-12 60,-12 33.14,0 60,5.37 60,12 z"
       id="path132"
       inkscape:connector-curvature="0"
       style="fill:#ffffff;stroke:#000000;stroke-width:5" />
    <path
       d="m 1180,92 c 0,6.63 -26.86,12 -60,12 -33.14,0 -60,-5.37 -60,-12"
       id="path134"
       inkscape:connector-curvature="0"
       style="fill:none;stroke:#000000;stroke-width:5" />
    <use
       xlink:href="#j"
       transform="translate(1097.6173,158.22222)"
       id="use136"
       x="0"
       y="0"
       width="100%"
       height="100%" />
    <path
       d="m 880,180 h 90 v -40 h 90"
       id="path138"
       inkscape:connector-curvature="0"
       style="fill:none;stroke:#000000;stroke-width:5" />
    <path
       d="m 1060,140 -14.27,4.64 v -9.28 z"
       id="path140"
       inkscape:connector-curvature="0" />
    <path
       d="m 1060,137.37 v 5.26 l -16.77,5.45 v -16.16 z m -11.77,3.82 3.68,-1.2 -3.67,-1.2 z"
       id="path142"
       inkscape:connector-curvature="0" />
    <path
       d="m 880,320 h 90 V 140 h 90"
       id="path144"
       inkscape:connector-curvature="0"
       style="fill:none;stroke:#000000;stroke-width:5" />
    <path
       d="m 1060,140 -14.27,4.64 v -9.28 z"
       id="path146"
       inkscape:connector-curvature="0" />
    <path
       d="m 1060,137.37 v 5.26 l -16.77,5.45 v -16.16 z m -11.77,3.82 3.68,-1.2 -3.67,-1.2 z"
       id="path148"
       inkscape:connector-curvature="0" />
    <path
       d="m 880,480 h 90 V 140 h 90"
       id="path150"
       inkscape:connector-curvature="0"
       style="fill:none;stroke:#000000;stroke-width:5" />
    <path
       d="m 1060,140 -14.27,4.64 v -9.28 z"
       id="path152"
       inkscape:connector-curvature="0" />
    <path
       d="m 1060,137.37 v 5.26 l -16.77,5.45 v -16.16 z m -11.77,3.82 3.68,-1.2 -3.67,-1.2 z"
       id="path154"
       inkscape:connector-curvature="0" />
    <g
       id="g158">
      <path
         d="m 529.67,355 19.45,19.22 -9.67,0.05 0.43,71.34 9.67,-0.05 -19.22,19.44 -19.45,-19.22 9.67,-0.05 -0.43,-71.34 -9.67,0.05 z"
         id="path156"
         inkscape:connector-curvature="0"
         style="fill:#009900;stroke:#000000;stroke-width:5" />
    </g>
    <defs
       id="defs246">
      <path
         d="m 182,-130 c 37,4 62,22 62,59 0,94 -128,67 -220,71 v -248 c 84,5 203,-23 205,63 0,31 -19,50 -47,55 z M 76,-148 c 40,-3 101,13 101,-30 0,-44 -60,-28 -101,-31 z m 0,110 c 48,-3 116,14 116,-37 0,-48 -69,-32 -116,-35 v 72"
         id="k"
         inkscape:connector-curvature="0" />
      <path
         d="M 133,-34 C 117,-15 103,5 69,4 32,3 11,-16 11,-54 c -1,-60 55,-63 116,-61 1,-26 -3,-47 -28,-47 -18,1 -26,9 -28,27 l -52,-2 c 7,-38 36,-58 82,-57 46,1 74,22 75,68 l 1,82 c -1,14 12,18 25,15 v 27 c -30,8 -71,5 -69,-32 z m -48,3 c 29,0 43,-24 42,-57 -32,0 -66,-3 -65,30 0,17 8,27 23,27"
         id="l"
         inkscape:connector-curvature="0" />
      <path
         d="M 190,-63 C 183,-21 152,4 104,4 45,4 20,-34 14,-94 2,-204 168,-231 188,-130 l -49,2 c -2,-19 -15,-32 -35,-32 -30,0 -35,28 -38,64 -6,74 65,87 74,30"
         id="m"
         inkscape:connector-curvature="0" />
      <path
         d="M 147,0 96,-86 75,-71 V 0 H 25 v -261 h 50 v 150 l 67,-79 h 53 l -66,74 72,116 h -54"
         id="n"
         inkscape:connector-curvature="0" />
      <path
         d="M 185,-48 C 172,-18 148,5 103,4 43,2 14,-33 14,-96 c 0,-63 30,-98 90,-98 62,0 83,45 84,108 H 66 c 0,31 8,55 39,56 18,0 30,-7 34,-22 z m -45,-69 c 5,-46 -57,-63 -70,-21 -2,6 -4,13 -4,21 h 74"
         id="o"
         inkscape:connector-curvature="0" />
      <path
         d="m 135,-194 c 87,-1 58,113 63,194 h -50 c -7,-57 23,-157 -34,-157 -59,0 -34,97 -39,157 H 25 l -1,-190 h 47 c 2,12 -1,28 3,38 12,-26 28,-41 61,-42"
         id="p"
         inkscape:connector-curvature="0" />
      <path
         d="m 88,-194 c 31,-1 46,15 58,34 l -1,-101 h 50 l 1,261 h -48 c -2,-10 0,-23 -3,-31 C 134,-8 116,4 84,4 32,4 16,-41 15,-95 c 0,-56 19,-97 73,-99 z m 17,164 c 33,0 40,-30 41,-66 1,-37 -9,-64 -41,-64 -32,0 -38,30 -39,65 0,43 13,65 39,65"
         id="q"
         inkscape:connector-curvature="0" />
      <g
         id="a">
        <use
           transform="scale(0.08641975)"
           xlink:href="#k"
           id="use167"
           x="0"
           y="0"
           width="100%"
           height="100%" />
        <use
           transform="matrix(0.08641975,0,0,0.08641975,22.382716,0)"
           xlink:href="#l"
           id="use169"
           x="0"
           y="0"
           width="100%"
           height="100%" />
        <use
           transform="matrix(0.08641975,0,0,0.08641975,39.666667,0)"
           xlink:href="#m"
           id="use171"
           x="0"
           y="0"
           width="100%"
           height="100%" />
        <use
           transform="matrix(0.08641975,0,0,0.08641975,56.950617,0)"
           xlink:href="#n"
           id="use173"
           x="0"
           y="0"
           width="100%"
           height="100%" />
        <use
           transform="matrix(0.08641975,0,0,0.08641975,74.234568,0)"
           xlink:href="#o"
           id="use175"
           x="0"
           y="0"
           width="100%"
           height="100%" />
        <use
           transform="matrix(0.08641975,0,0,0.08641975,91.518519,0)"
           xlink:href="#p"
           id="use177"
           x="0"
           y="0"
           width="100%"
           height="100%" />
        <use
           transform="matrix(0.08641975,0,0,0.08641975,110.44444,0)"
           xlink:href="#q"
           id="use179"
           x="0"
           y="0"
           width="100%"
           height="100%" />
      </g>
      <path
         d="m 169,-182 c -1,-43 -94,-46 -97,-3 18,66 151,10 154,114 3,95 -165,93 -204,36 -6,-8 -10,-19 -12,-30 l 50,-8 c 3,46 112,56 116,5 -17,-69 -150,-10 -154,-114 -4,-87 153,-88 188,-35 5,8 8,18 10,28"
         id="r"
         inkscape:connector-curvature="0" />
      <path
         d="m 135,-150 c -39,-12 -60,13 -60,57 V 0 H 25 l -1,-190 h 47 c 2,13 -1,29 3,40 6,-28 27,-53 61,-41 v 41"
         id="s"
         inkscape:connector-curvature="0" />
      <path
         d="M 128,0 H 69 L 1,-190 h 53 l 45,150 48,-150 h 52"
         id="t"
         inkscape:connector-curvature="0" />
      <path
         d="m 25,-224 v -37 h 50 v 37 z M 25,0 V -190 H 75 V 0 H 25"
         id="u"
         inkscape:connector-curvature="0" />
      <g
         id="b">
        <use
           transform="scale(0.08641975)"
           xlink:href="#r"
           id="use186"
           x="0"
           y="0"
           width="100%"
           height="100%" />
        <use
           transform="matrix(0.08641975,0,0,0.08641975,20.740741,0)"
           xlink:href="#o"
           id="use188"
           x="0"
           y="0"
           width="100%"
           height="100%" />
        <use
           transform="matrix(0.08641975,0,0,0.08641975,38.024691,0)"
           xlink:href="#s"
           id="use190"
           x="0"
           y="0"
           width="100%"
           height="100%" />
        <use
           transform="matrix(0.08641975,0,0,0.08641975,50.123457,0)"
           xlink:href="#t"
           id="use192"
           x="0"
           y="0"
           width="100%"
           height="100%" />
        <use
           transform="matrix(0.08641975,0,0,0.08641975,67.407407,0)"
           xlink:href="#u"
           id="use194"
           x="0"
           y="0"
           width="100%"
           height="100%" />
        <use
           transform="matrix(0.08641975,0,0,0.08641975,76.049383,0)"
           xlink:href="#m"
           id="use196"
           x="0"
           y="0"
           width="100%"
           height="100%" />
        <use
           transform="matrix(0.08641975,0,0,0.08641975,93.333333,0)"
           xlink:href="#o"
           id="use198"
           x="0"
           y="0"
           width="100%"
           height="100%" />
      </g>
      <path
         d="m 128,-127 c 34,4 56,21 59,58 7,91 -148,94 -172,28 -4,-9 -6,-17 -7,-26 l 51,-5 c 1,24 16,35 40,36 23,0 39,-12 38,-36 -1,-31 -31,-36 -65,-34 v -40 c 32,2 59,-3 59,-33 0,-20 -13,-33 -34,-33 -21,0 -33,13 -35,32 l -50,-3 c 6,-44 37,-68 86,-68 50,0 83,20 83,66 0,35 -22,52 -53,58"
         id="v"
         inkscape:connector-curvature="0" />
      <use
         transform="scale(0.08641975)"
         xlink:href="#v"
         id="c"
         x="0"
         y="0"
         width="100%"
         height="100%" />
      <path
         d="m 182,-182 c 0,78 -84,86 -111,141 H 186 V 0 H 12 c -6,-101 99,-100 120,-180 1,-22 -12,-31 -33,-32 -23,0 -32,14 -35,34 l -49,-3 c 5,-45 32,-70 84,-70 51,0 83,22 83,69"
         id="w"
         inkscape:connector-curvature="0" />
      <use
         transform="scale(0.08641975)"
         xlink:href="#w"
         id="d"
         x="0"
         y="0"
         width="100%"
         height="100%" />
      <path
         d="M 275,0 H 214 L 170,-196 126,0 H 64 L 0,-248 h 53 l 44,199 45,-199 h 58 l 43,199 44,-199 h 52"
         id="x"
         inkscape:connector-curvature="0" />
      <path
         d="m 110,-194 c 64,0 96,36 96,99 0,64 -35,99 -97,99 -61,0 -95,-36 -95,-99 0,-62 34,-99 96,-99 z m -1,164 c 35,0 45,-28 45,-65 0,-40 -10,-65 -43,-65 -34,0 -45,26 -45,65 0,36 10,65 43,65"
         id="y"
         inkscape:connector-curvature="0" />
      <g
         id="e">
        <use
           transform="scale(0.08641975)"
           xlink:href="#x"
           id="use207"
           x="0"
           y="0"
           width="100%"
           height="100%" />
        <use
           transform="matrix(0.08641975,0,0,0.08641975,28.691358,0)"
           xlink:href="#y"
           id="use209"
           x="0"
           y="0"
           width="100%"
           height="100%" />
        <use
           transform="matrix(0.08641975,0,0,0.08641975,47.617284,0)"
           xlink:href="#s"
           id="use211"
           x="0"
           y="0"
           width="100%"
           height="100%" />
        <use
           transform="matrix(0.08641975,0,0,0.08641975,59.716049,0)"
           xlink:href="#n"
           id="use213"
           x="0"
           y="0"
           width="100%"
           height="100%" />
        <use
           transform="matrix(0.08641975,0,0,0.08641975,77,0)"
           xlink:href="#o"
           id="use215"
           x="0"
           y="0"
           width="100%"
           height="100%" />
        <use
           transform="matrix(0.08641975,0,0,0.08641975,94.283951,0)"
           xlink:href="#s"
           id="use217"
           x="0"
           y="0"
           width="100%"
           height="100%" />
      </g>
      <path
         d="m 23,0 v -37 h 61 v -169 l -59,37 v -38 l 62,-41 h 46 v 211 h 57 V 0 H 23"
         id="z"
         inkscape:connector-curvature="0" />
      <use
         transform="scale(0.08641975)"
         xlink:href="#z"
         id="f"
         x="0"
         y="0"
         width="100%"
         height="100%" />
      <use
         transform="scale(0.08641975)"
         xlink:href="#w"
         id="g"
         x="0"
         y="0"
         width="100%"
         height="100%" />
      <use
         transform="scale(0.08641975)"
         xlink:href="#v"
         id="h"
         x="0"
         y="0"
         width="100%"
         height="100%" />
      <path
         d="M 231,0 H 179 L 140,-155 100,0 H 48 L -1,-190 h 46 l 32,145 c 9,-52 24,-97 36,-145 h 53 l 37,145 32,-145 h 46"
         id="A"
         inkscape:connector-curvature="0" />
      <g
         id="i">
        <use
           transform="scale(0.08641975)"
           xlink:href="#r"
           id="use225"
           x="0"
           y="0"
           width="100%"
           height="100%" />
        <use
           transform="matrix(0.08641975,0,0,0.08641975,20.740741,0)"
           xlink:href="#A"
           id="use227"
           x="0"
           y="0"
           width="100%"
           height="100%" />
        <use
           transform="matrix(0.08641975,0,0,0.08641975,44.938272,0)"
           xlink:href="#u"
           id="use229"
           x="0"
           y="0"
           width="100%"
           height="100%" />
        <use
           transform="matrix(0.08641975,0,0,0.08641975,53.580247,0)"
           xlink:href="#p"
           id="use231"
           x="0"
           y="0"
           width="100%"
           height="100%" />
        <use
           transform="matrix(0.08641975,0,0,0.08641975,72.506173,0)"
           xlink:href="#q"
           id="use233"
           x="0"
           y="0"
           width="100%"
           height="100%" />
        <use
           transform="matrix(0.08641975,0,0,0.08641975,91.432099,0)"
           xlink:href="#y"
           id="use235"
           x="0"
           y="0"
           width="100%"
           height="100%" />
        <use
           transform="matrix(0.08641975,0,0,0.08641975,110.35802,0)"
           xlink:href="#p"
           id="use237"
           x="0"
           y="0"
           width="100%"
           height="100%" />
      </g>
      <path
         d="m 24,-248 c 120,-7 223,5 221,122 C 244,-46 201,0 124,0 H 24 Z m 52,208 c 74,7 117,-18 117,-86 0,-67 -45,-88 -117,-82 v 168"
         id="B"
         inkscape:connector-curvature="0" />
      <g
         id="j">
        <use
           transform="scale(0.08641975)"
           xlink:href="#B"
           id="use241"
           x="0"
           y="0"
           width="100%"
           height="100%" />
        <use
           transform="matrix(0.08641975,0,0,0.08641975,22.382716,0)"
           xlink:href="#k"
           id="use243"
           x="0"
           y="0"
           width="100%"
           height="100%" />
      </g>
    </defs>
  </g>
</svg>
