<?xml version="1.0" standalone="yes"?>

<svg version="1.1" viewBox="0.0 0.0 719.3858267716536 709.3412073490814" fill="none" stroke="none" stroke-linecap="square" stroke-miterlimit="10" xmlns="http://www.w3.org/2000/svg" xmlns:xlink="http://www.w3.org/1999/xlink"><clipPath id="p.0"><path d="m0 0l719.3858 0l0 709.3412l-719.3858 0l0 -709.3412z" clip-rule="nonzero"></path></clipPath><g clip-path="url(#p.0)"><path fill="#000000" fill-opacity="0.0" d="m0 0l719.3858 0l0 709.3412l-719.3858 0z" fill-rule="evenodd"></path><path fill="#ffffff" d="m0.67979 7.3175855l716.5354 0l0 699.0551l-716.5354 0z" fill-rule="evenodd"></path><path fill="#000000" fill-opacity="0.0" d="m305.75854 30.013123l0 656.9134" fill-rule="evenodd"></path><path stroke="#000000" stroke-width="4.0" stroke-linejoin="round" stroke-linecap="butt" d="m305.75854 30.013123l0 656.9134" fill-rule="evenodd"></path><path fill="#000000" fill-opacity="0.0" d="m443.27216 30.013123l0 656.9134" fill-rule="evenodd"></path><path stroke="#000000" stroke-width="4.0" stroke-linejoin="round" stroke-linecap="butt" d="m443.27216 30.013123l0 656.9134" fill-rule="evenodd"></path><path fill="#000000" fill-opacity="0.0" d="m580.7858 30.013123l0 656.9134" fill-rule="evenodd"></path><path stroke="#000000" stroke-width="4.0" stroke-linejoin="round" stroke-linecap="butt" d="m580.7858 30.013123l0 656.9134" fill-rule="evenodd"></path><path fill="#cfe2f3" d="m341.1496 74.8399l0 0c0 -17.55135 14.22818 -31.77953 31.779541 -31.77953c17.55133 0 31.77951 14.22818 31.77951 31.77953c0 17.551346 -14.22818 31.779526 -31.77951 31.779526c-17.551361 0 -31.779541 -14.22818 -31.779541 -31.779526z" fill-rule="evenodd"></path><path fill="#a5b4c2" d="m359.43756 65.335464c0 -1.8282661 1.4820862 -3.3103714 3.3103638 -3.3103714c1.8282471 0 3.3103638 1.4821053 3.3103638 3.3103714c0 1.8282623 -1.4821167 3.3103638 -3.3103638 3.3103638c-1.8282776 0 -3.3103638 -1.4821014 -3.3103638 -3.3103638m20.362427 0c0 -1.8282661 1.4820862 -3.3103714 3.3103638 -3.3103714c1.8282776 0 3.3103638 1.4821053 3.3103638 3.3103714c0 1.8282623 -1.4820862 3.3103638 -3.3103638 3.3103638c-1.8282776 0 -3.3103638 -1.4821014 -3.3103638 -3.3103638" fill-rule="evenodd"></path><path fill="#000000" fill-opacity="0.0" d="m355.7044 88.69916q17.224731 11.829613 34.40921 0" fill-rule="evenodd"></path><path fill="#000000" fill-opacity="0.0" d="m341.1496 74.8399l0 0c0 -17.55135 14.22818 -31.77953 31.779541 -31.77953c17.55133 0 31.77951 14.22818 31.77951 31.77953c0 17.551346 -14.22818 31.779526 -31.77951 31.779526c-17.551361 0 -31.779541 -14.22818 -31.779541 -31.779526z" fill-rule="evenodd"></path><path stroke="#000000" stroke-width="1.0" stroke-linejoin="round" stroke-linecap="butt" d="m359.43756 65.335464c0 -1.8282661 1.4820862 -3.3103714 3.3103638 -3.3103714c1.8282471 0 3.3103638 1.4821053 3.3103638 3.3103714c0 1.8282623 -1.4821167 3.3103638 -3.3103638 3.3103638c-1.8282776 0 -3.3103638 -1.4821014 -3.3103638 -3.3103638m20.362427 0c0 -1.8282661 1.4820862 -3.3103714 3.3103638 -3.3103714c1.8282776 0 3.3103638 1.4821053 3.3103638 3.3103714c0 1.8282623 -1.4820862 3.3103638 -3.3103638 3.3103638c-1.8282776 0 -3.3103638 -1.4821014 -3.3103638 -3.3103638" fill-rule="evenodd"></path><path stroke="#000000" stroke-width="1.0" stroke-linejoin="round" stroke-linecap="butt" d="m355.7044 88.69916q17.224731 11.829613 34.40921 0" fill-rule="evenodd"></path><path stroke="#000000" stroke-width="1.0" stroke-linejoin="round" stroke-linecap="butt" d="m341.1496 74.8399l0 0c0 -17.55135 14.22818 -31.77953 31.779541 -31.77953c17.55133 0 31.77951 14.22818 31.77951 31.77953c0 17.551346 -14.22818 31.779526 -31.77951 31.779526c-17.551361 0 -31.779541 -14.22818 -31.779541 -31.779526z" fill-rule="evenodd"></path><path fill="#cfe2f3" d="m477.1496 74.8399l0 0c0 -17.55135 14.22818 -31.77953 31.779541 -31.77953c17.55133 0 31.779541 14.22818 31.779541 31.77953c0 17.551346 -14.22821 31.779526 -31.779541 31.779526c-17.551361 0 -31.779541 -14.22818 -31.779541 -31.779526z" fill-rule="evenodd"></path><path fill="#a5b4c2" d="m495.43756 65.335464c0 -1.8282661 1.4820862 -3.3103714 3.3103638 -3.3103714c1.8282471 0 3.3103638 1.4821053 3.3103638 3.3103714c0 1.8282623 -1.4821167 3.3103638 -3.3103638 3.3103638c-1.8282776 0 -3.3103638 -1.4821014 -3.3103638 -3.3103638m20.362427 0c0 -1.8282661 1.4821167 -3.3103714 3.3103638 -3.3103714c1.8282471 0 3.3103638 1.4821053 3.3103638 3.3103714c0 1.8282623 -1.4821167 3.3103638 -3.3103638 3.3103638c-1.8282471 0 -3.3103638 -1.4821014 -3.3103638 -3.3103638" fill-rule="evenodd"></path><path fill="#000000" fill-opacity="0.0" d="m491.7044 88.69916q17.224731 11.829613 34.40924 0" fill-rule="evenodd"></path><path fill="#000000" fill-opacity="0.0" d="m477.1496 74.8399l0 0c0 -17.55135 14.22818 -31.77953 31.779541 -31.77953c17.55133 0 31.779541 14.22818 31.779541 31.77953c0 17.551346 -14.22821 31.779526 -31.779541 31.779526c-17.551361 0 -31.779541 -14.22818 -31.779541 -31.779526z" fill-rule="evenodd"></path><path stroke="#000000" stroke-width="1.0" stroke-linejoin="round" stroke-linecap="butt" d="m495.43756 65.335464c0 -1.8282661 1.4820862 -3.3103714 3.3103638 -3.3103714c1.8282471 0 3.3103638 1.4821053 3.3103638 3.3103714c0 1.8282623 -1.4821167 3.3103638 -3.3103638 3.3103638c-1.8282776 0 -3.3103638 -1.4821014 -3.3103638 -3.3103638m20.362427 0c0 -1.8282661 1.4821167 -3.3103714 3.3103638 -3.3103714c1.8282471 0 3.3103638 1.4821053 3.3103638 3.3103714c0 1.8282623 -1.4821167 3.3103638 -3.3103638 3.3103638c-1.8282471 0 -3.3103638 -1.4821014 -3.3103638 -3.3103638" fill-rule="evenodd"></path><path stroke="#000000" stroke-width="1.0" stroke-linejoin="round" stroke-linecap="butt" d="m491.7044 88.69916q17.224731 11.829613 34.40924 0" fill-rule="evenodd"></path><path stroke="#000000" stroke-width="1.0" stroke-linejoin="round" stroke-linecap="butt" d="m477.1496 74.8399l0 0c0 -17.55135 14.22818 -31.77953 31.779541 -31.77953c17.55133 0 31.779541 14.22818 31.779541 31.77953c0 17.551346 -14.22821 31.779526 -31.779541 31.779526c-17.551361 0 -31.779541 -14.22818 -31.779541 -31.779526z" fill-rule="evenodd"></path><path fill="#cfe2f3" d="m613.1496 74.8399l0 0c0 -17.55135 14.22821 -31.77953 31.779541 -31.77953c17.55133 0 31.779541 14.22818 31.779541 31.77953c0 17.551346 -14.22821 31.779526 -31.779541 31.779526c-17.55133 0 -31.779541 -14.22818 -31.779541 -31.779526z" fill-rule="evenodd"></path><path fill="#a5b4c2" d="m631.43756 65.335464c0 -1.8282661 1.4821167 -3.3103714 3.3103638 -3.3103714c1.8282471 0 3.3103638 1.4821053 3.3103638 3.3103714c0 1.8282623 -1.4821167 3.3103638 -3.3103638 3.3103638c-1.8282471 0 -3.3103638 -1.4821014 -3.3103638 -3.3103638m20.362427 0c0 -1.8282661 1.4821167 -3.3103714 3.3103638 -3.3103714c1.8282471 0 3.3103638 1.4821053 3.3103638 3.3103714c0 1.8282623 -1.4821167 3.3103638 -3.3103638 3.3103638c-1.8282471 0 -3.3103638 -1.4821014 -3.3103638 -3.3103638" fill-rule="evenodd"></path><path fill="#000000" fill-opacity="0.0" d="m627.7044 88.69916q17.224731 11.829613 34.40924 0" fill-rule="evenodd"></path><path fill="#000000" fill-opacity="0.0" d="m613.1496 74.8399l0 0c0 -17.55135 14.22821 -31.77953 31.779541 -31.77953c17.55133 0 31.779541 14.22818 31.779541 31.77953c0 17.551346 -14.22821 31.779526 -31.779541 31.779526c-17.55133 0 -31.779541 -14.22818 -31.779541 -31.779526z" fill-rule="evenodd"></path><path stroke="#000000" stroke-width="1.0" stroke-linejoin="round" stroke-linecap="butt" d="m631.43756 65.335464c0 -1.8282661 1.4821167 -3.3103714 3.3103638 -3.3103714c1.8282471 0 3.3103638 1.4821053 3.3103638 3.3103714c0 1.8282623 -1.4821167 3.3103638 -3.3103638 3.3103638c-1.8282471 0 -3.3103638 -1.4821014 -3.3103638 -3.3103638m20.362427 0c0 -1.8282661 1.4821167 -3.3103714 3.3103638 -3.3103714c1.8282471 0 3.3103638 1.4821053 3.3103638 3.3103714c0 1.8282623 -1.4821167 3.3103638 -3.3103638 3.3103638c-1.8282471 0 -3.3103638 -1.4821014 -3.3103638 -3.3103638" fill-rule="evenodd"></path><path stroke="#000000" stroke-width="1.0" stroke-linejoin="round" stroke-linecap="butt" d="m627.7044 88.69916q17.224731 11.829613 34.40924 0" fill-rule="evenodd"></path><path stroke="#000000" stroke-width="1.0" stroke-linejoin="round" stroke-linecap="butt" d="m613.1496 74.8399l0 0c0 -17.55135 14.22821 -31.77953 31.779541 -31.77953c17.55133 0 31.779541 14.22818 31.779541 31.77953c0 17.551346 -14.22821 31.779526 -31.779541 31.779526c-17.55133 0 -31.779541 -14.22818 -31.779541 -31.779526z" fill-rule="evenodd"></path><path fill="#000000" fill-opacity="0.0" d="m29.267717 162.06036l263.37006 0l0 76.69292l-263.37006 0z" fill-rule="evenodd"></path><path fill="#000000" d="m41.40834 209.46036l0 -28.640625l12.703125 0q3.828125 0 5.8125 0.78125q2.0 0.765625 3.1875 2.71875q1.1875 1.953125 1.1875 4.3125q0 3.046875 -1.96875 5.140625q-1.96875 2.09375 -6.09375 2.65625q1.5 0.71875 2.28125 1.421875q1.671875 1.53125 3.15625 3.8125l4.96875 7.796875l-4.765625 0l-3.78125 -5.953125q-1.65625 -2.578125 -2.734375 -3.9375q-1.078125 -1.375 -1.9375 -1.921875q-0.84375 -0.546875 -1.71875 -0.765625q-0.640625 -0.140625 -2.109375 -0.140625l-4.390625 0l0 12.71875l-3.796875 0zm3.796875 -16.0l8.140625 0q2.59375 0 4.0625 -0.53125q1.46875 -0.546875 2.21875 -1.71875q0.765625 -1.1875 0.765625 -2.578125q0 -2.03125 -1.46875 -3.328125q-1.46875 -1.3125 -4.65625 -1.3125l-9.0625 0l0 9.46875zm23.277344 5.625q0 -5.765625 3.203125 -8.53125q2.671875 -2.3125 6.53125 -2.3125q4.265625 0 6.984375 2.8125q2.71875 2.796875 2.71875 7.734375q0 4.015625 -1.203125 6.3125q-1.203125 2.28125 -3.5 3.5625q-2.296875 1.265625 -5.0 1.265625q-4.359375 0 -7.046875 -2.796875q-2.6875 -2.796875 -2.6875 -8.046875zm3.609375 0q0 3.984375 1.734375 5.96875q1.75 1.984375 4.390625 1.984375q2.609375 0 4.34375 -1.984375q1.75 -2.0 1.75 -6.078125q0 -3.859375 -1.75 -5.828125q-1.75 -1.984375 -4.34375 -1.984375q-2.640625 0 -4.390625 1.96875q-1.734375 1.96875 -1.734375 5.953125zm18.636719 0q0 -5.765625 3.203125 -8.53125q2.671875 -2.3125 6.53125 -2.3125q4.265625 0 6.984375 2.8125q2.71875 2.796875 2.71875 7.734375q0 4.015625 -1.203125 6.3125q-1.203125 2.28125 -3.5 3.5625q-2.296875 1.265625 -5.0 1.265625q-4.359375 0 -7.046875 -2.796875q-2.6875 -2.796875 -2.6875 -8.046875zm3.609375 0q0 3.984375 1.734375 5.96875q1.75 1.984375 4.390625 1.984375q2.609375 0 4.34375 -1.984375q1.75 -2.0 1.75 -6.078125q0 -3.859375 -1.75 -5.828125q-1.75 -1.984375 -4.34375 -1.984375q-2.640625 0 -4.390625 1.96875q-1.734375 1.96875 -1.734375 5.953125zm19.949219 10.375l0 -20.75l3.140625 0l0 2.921875q0.984375 -1.53125 2.59375 -2.453125q1.625 -0.9375 3.703125 -0.9375q2.296875 0 3.765625 0.96875q1.484375 0.953125 2.09375 2.671875q2.453125 -3.640625 6.40625 -3.640625q3.078125 0 4.734375 1.71875q1.671875 1.703125 1.671875 5.265625l0 14.234375l-3.5 0l0 -13.0625q0 -2.109375 -0.34375 -3.03125q-0.34375 -0.9375 -1.25 -1.5q-0.890625 -0.578125 -2.09375 -0.578125q-2.1875 0 -3.640625 1.46875q-1.4375 1.453125 -1.4375 4.65625l0 12.046875l-3.515625 0l0 -13.484375q0 -2.34375 -0.859375 -3.515625q-0.859375 -1.171875 -2.8125 -1.171875q-1.484375 0 -2.75 0.78125q-1.265625 0.78125 -1.828125 2.296875q-0.5625 1.5 -0.5625 4.328125l0 10.765625l-3.515625 0zm56.69922 0l-3.515625 0l0 -22.40625q-1.265625 1.21875 -3.328125 2.4375q-2.0625 1.203125 -3.703125 1.796875l0 -3.390625q2.953125 -1.390625 5.15625 -3.359375q2.203125 -1.96875 3.125 -3.828125l2.265625 0l0 28.75z" fill-rule="nonzero"></path><path fill="#000000" fill-opacity="0.0" d="m29.267717 272.06036l263.37006 0l0 76.69293l-263.37006 0z" fill-rule="evenodd"></path><path fill="#000000" d="m41.40834 319.46036l0 -28.640625l12.703125 0q3.828125 0 5.8125 0.78125q2.0 0.765625 3.1875 2.71875q1.1875 1.953125 1.1875 4.3125q0 3.046875 -1.96875 5.140625q-1.96875 2.09375 -6.09375 2.65625q1.5 0.71875 2.28125 1.421875q1.671875 1.53125 3.15625 3.8125l4.96875 7.796875l-4.765625 0l-3.78125 -5.953125q-1.65625 -2.578125 -2.734375 -3.9375q-1.078125 -1.375 -1.9375 -1.921875q-0.84375 -0.546875 -1.71875 -0.765625q-0.640625 -0.140625 -2.109375 -0.140625l-4.390625 0l0 12.71875l-3.796875 0zm3.796875 -16.0l8.140625 0q2.59375 0 4.0625 -0.53125q1.46875 -0.546875 2.21875 -1.71875q0.765625 -1.1875 0.765625 -2.578125q0 -2.03125 -1.46875 -3.328125q-1.46875 -1.3125 -4.65625 -1.3125l-9.0625 0l0 9.46875zm23.277344 5.625q0 -5.765625 3.203125 -8.53125q2.671875 -2.3125 6.53125 -2.3125q4.265625 0 6.984375 2.8125q2.71875 2.796875 2.71875 7.734375q0 4.015625 -1.203125 6.3125q-1.203125 2.28125 -3.5 3.5625q-2.296875 1.265625 -5.0 1.265625q-4.359375 0 -7.046875 -2.796875q-2.6875 -2.796875 -2.6875 -8.046875zm3.609375 0q0 3.984375 1.734375 5.96875q1.75 1.984375 4.390625 1.984375q2.609375 0 4.34375 -1.984375q1.75 -2.0 1.75 -6.078125q0 -3.859375 -1.75 -5.828125q-1.75 -1.984375 -4.34375 -1.984375q-2.640625 0 -4.390625 1.96875q-1.734375 1.96875 -1.734375 5.953125zm18.636719 0q0 -5.765625 3.203125 -8.53125q2.671875 -2.3125 6.53125 -2.3125q4.265625 0 6.984375 2.8125q2.71875 2.796875 2.71875 7.734375q0 4.015625 -1.203125 6.3125q-1.203125 2.28125 -3.5 3.5625q-2.296875 1.265625 -5.0 1.265625q-4.359375 0 -7.046875 -2.796875q-2.6875 -2.796875 -2.6875 -8.046875zm3.609375 0q0 3.984375 1.734375 5.96875q1.75 1.984375 4.390625 1.984375q2.609375 0 4.34375 -1.984375q1.75 -2.0 1.75 -6.078125q0 -3.859375 -1.75 -5.828125q-1.75 -1.984375 -4.34375 -1.984375q-2.640625 0 -4.390625 1.96875q-1.734375 1.96875 -1.734375 5.953125zm19.949219 10.375l0 -20.75l3.140625 0l0 2.921875q0.984375 -1.53125 2.59375 -2.453125q1.625 -0.9375 3.703125 -0.9375q2.296875 0 3.765625 0.96875q1.484375 0.953125 2.09375 2.671875q2.453125 -3.640625 6.40625 -3.640625q3.078125 0 4.734375 1.71875q1.671875 1.703125 1.671875 5.265625l0 14.234375l-3.5 0l0 -13.0625q0 -2.109375 -0.34375 -3.03125q-0.34375 -0.9375 -1.25 -1.5q-0.890625 -0.578125 -2.09375 -0.578125q-2.1875 0 -3.640625 1.46875q-1.4375 1.453125 -1.4375 4.65625l0 12.046875l-3.515625 0l0 -13.484375q0 -2.34375 -0.859375 -3.515625q-0.859375 -1.171875 -2.8125 -1.171875q-1.484375 0 -2.75 0.78125q-1.265625 0.78125 -1.828125 2.296875q-0.5625 1.5 -0.5625 4.328125l0 10.765625l-3.515625 0zm61.933594 -3.375l0 3.375l-18.921875 0q-0.046875 -1.265625 0.40625 -2.4375q0.71875 -1.9375 2.3125 -3.8125q1.59375 -1.875 4.59375 -4.34375q4.671875 -3.828125 6.3125 -6.0625q1.640625 -2.234375 1.640625 -4.21875q0 -2.09375 -1.5 -3.53125q-1.484375 -1.4375 -3.890625 -1.4375q-2.53125 0 -4.0625 1.53125q-1.515625 1.515625 -1.546875 4.21875l-3.609375 -0.375q0.375 -4.046875 2.796875 -6.15625q2.421875 -2.125 6.5 -2.125q4.125 0 6.515625 2.28125q2.40625 2.28125 2.40625 5.671875q0 1.71875 -0.703125 3.375q-0.703125 1.65625 -2.328125 3.5q-1.625 1.828125 -5.421875 5.03125q-3.15625 2.65625 -4.0625 3.609375q-0.890625 0.9375 -1.484375 1.90625l14.046875 0z" fill-rule="nonzero"></path><path fill="#000000" fill-opacity="0.0" d="m29.267717 382.06036l263.37006 0l0 76.69293l-263.37006 0z" fill-rule="evenodd"></path><path fill="#000000" d="m41.40834 429.46036l0 -28.640625l12.703125 0q3.828125 0 5.8125 0.78125q2.0 0.765625 3.1875 2.71875q1.1875 1.953125 1.1875 4.3125q0 3.046875 -1.96875 5.140625q-1.96875 2.09375 -6.09375 2.65625q1.5 0.71875 2.28125 1.421875q1.671875 1.53125 3.15625 3.8125l4.96875 7.796875l-4.765625 0l-3.78125 -5.953125q-1.65625 -2.578125 -2.734375 -3.9375q-1.078125 -1.375 -1.9375 -1.921875q-0.84375 -0.546875 -1.71875 -0.765625q-0.640625 -0.140625 -2.109375 -0.140625l-4.390625 0l0 12.71875l-3.796875 0zm3.796875 -16.0l8.140625 0q2.59375 0 4.0625 -0.53125q1.46875 -0.546875 2.21875 -1.71875q0.765625 -1.1875 0.765625 -2.578125q0 -2.03125 -1.46875 -3.328125q-1.46875 -1.3125 -4.65625 -1.3125l-9.0625 0l0 9.46875zm23.277344 5.625q0 -5.765625 3.203125 -8.53125q2.671875 -2.3125 6.53125 -2.3125q4.265625 0 6.984375 2.8125q2.71875 2.796875 2.71875 7.734375q0 4.015625 -1.203125 6.3125q-1.203125 2.28125 -3.5 3.5625q-2.296875 1.265625 -5.0 1.265625q-4.359375 0 -7.046875 -2.796875q-2.6875 -2.796875 -2.6875 -8.046875zm3.609375 0q0 3.984375 1.734375 5.96875q1.75 1.984375 4.390625 1.984375q2.609375 0 4.34375 -1.984375q1.75 -2.0 1.75 -6.078125q0 -3.859375 -1.75 -5.828125q-1.75 -1.984375 -4.34375 -1.984375q-2.640625 0 -4.390625 1.96875q-1.734375 1.96875 -1.734375 5.953125zm18.636719 0q0 -5.765625 3.203125 -8.53125q2.671875 -2.3125 6.53125 -2.3125q4.265625 0 6.984375 2.8125q2.71875 2.796875 2.71875 7.734375q0 4.015625 -1.203125 6.3125q-1.203125 2.28125 -3.5 3.5625q-2.296875 1.265625 -5.0 1.265625q-4.359375 0 -7.046875 -2.796875q-2.6875 -2.796875 -2.6875 -8.046875zm3.609375 0q0 3.984375 1.734375 5.96875q1.75 1.984375 4.390625 1.984375q2.609375 0 4.34375 -1.984375q1.75 -2.0 1.75 -6.078125q0 -3.859375 -1.75 -5.828125q-1.75 -1.984375 -4.34375 -1.984375q-2.640625 0 -4.390625 1.96875q-1.734375 1.96875 -1.734375 5.953125zm19.949219 10.375l0 -20.75l3.140625 0l0 2.921875q0.984375 -1.53125 2.59375 -2.453125q1.625 -0.9375 3.703125 -0.9375q2.296875 0 3.765625 0.96875q1.484375 0.953125 2.09375 2.671875q2.453125 -3.640625 6.40625 -3.640625q3.078125 0 4.734375 1.71875q1.671875 1.703125 1.671875 5.265625l0 14.234375l-3.5 0l0 -13.0625q0 -2.109375 -0.34375 -3.03125q-0.34375 -0.9375 -1.25 -1.5q-0.890625 -0.578125 -2.09375 -0.578125q-2.1875 0 -3.640625 1.46875q-1.4375 1.453125 -1.4375 4.65625l0 12.046875l-3.515625 0l0 -13.484375q0 -2.34375 -0.859375 -3.515625q-0.859375 -1.171875 -2.8125 -1.171875q-1.484375 0 -2.75 0.78125q-1.265625 0.78125 -1.828125 2.296875q-0.5625 1.5 -0.5625 4.328125l0 10.765625l-3.515625 0zm43.48047 -7.5625l3.515625 -0.46875q0.59375 2.984375 2.046875 4.3125q1.46875 1.3125 3.546875 1.3125q2.484375 0 4.1875 -1.71875q1.71875 -1.71875 1.71875 -4.25q0 -2.421875 -1.59375 -4.0q-1.578125 -1.578125 -4.015625 -1.578125q-1.0 0 -2.484375 0.390625l0.390625 -3.078125q0.359375 0.03125 0.578125 0.03125q2.234375 0 4.03125 -1.171875q1.796875 -1.171875 1.796875 -3.609375q0 -1.9375 -1.3125 -3.203125q-1.296875 -1.265625 -3.375 -1.265625q-2.046875 0 -3.421875 1.296875q-1.359375 1.28125 -1.75 3.859375l-3.515625 -0.625q0.640625 -3.53125 2.921875 -5.46875q2.296875 -1.953125 5.6875 -1.953125q2.34375 0 4.3125 1.015625q1.984375 1.0 3.03125 2.734375q1.046875 1.734375 1.046875 3.6875q0 1.859375 -1.0 3.390625q-1.0 1.515625 -2.953125 2.40625q2.546875 0.59375 3.953125 2.4375q1.40625 1.84375 1.40625 4.625q0 3.75 -2.734375 6.359375q-2.734375 2.609375 -6.921875 2.609375q-3.765625 0 -6.265625 -2.25q-2.484375 -2.25 -2.828125 -5.828125z" fill-rule="nonzero"></path><path fill="#000000" fill-opacity="0.0" d="m29.267717 492.06036l263.37006 0l0 76.69293l-263.37006 0z" fill-rule="evenodd"></path><path fill="#000000" d="m41.40834 539.4604l0 -28.640656l12.703125 0q3.828125 0 5.8125 0.78125q2.0 0.7656555 3.1875 2.7187805q1.1875 1.953125 1.1875 4.3125q0 3.046875 -1.96875 5.140625q-1.96875 2.09375 -6.09375 2.65625q1.5 0.71875 2.28125 1.421875q1.671875 1.53125 3.15625 3.8125l4.96875 7.796875l-4.765625 0l-3.78125 -5.953125q-1.65625 -2.578125 -2.734375 -3.9375q-1.078125 -1.375 -1.9375 -1.921875q-0.84375 -0.546875 -1.71875 -0.765625q-0.640625 -0.140625 -2.109375 -0.140625l-4.390625 0l0 12.71875l-3.796875 0zm3.796875 -16.0l8.140625 0q2.59375 0 4.0625 -0.53125q1.46875 -0.546875 2.21875 -1.71875q0.765625 -1.1875 0.765625 -2.578125q0 -2.03125 -1.46875 -3.328125q-1.46875 -1.3125 -4.65625 -1.3125l-9.0625 0l0 9.46875zm23.277344 5.625q0 -5.765625 3.203125 -8.53125q2.671875 -2.3125 6.53125 -2.3125q4.265625 0 6.984375 2.8125q2.71875 2.796875 2.71875 7.734375q0 4.015625 -1.203125 6.3125q-1.203125 2.28125 -3.5 3.5625q-2.296875 1.265625 -5.0 1.265625q-4.359375 0 -7.046875 -2.796875q-2.6875 -2.796875 -2.6875 -8.046875zm3.609375 0q0 3.984375 1.734375 5.96875q1.75 1.984375 4.390625 1.984375q2.609375 0 4.34375 -1.984375q1.75 -2.0 1.75 -6.078125q0 -3.859375 -1.75 -5.828125q-1.75 -1.984375 -4.34375 -1.984375q-2.640625 0 -4.390625 1.96875q-1.734375 1.96875 -1.734375 5.953125zm18.636719 0q0 -5.765625 3.203125 -8.53125q2.671875 -2.3125 6.53125 -2.3125q4.265625 0 6.984375 2.8125q2.71875 2.796875 2.71875 7.734375q0 4.015625 -1.203125 6.3125q-1.203125 2.28125 -3.5 3.5625q-2.296875 1.265625 -5.0 1.265625q-4.359375 0 -7.046875 -2.796875q-2.6875 -2.796875 -2.6875 -8.046875zm3.609375 0q0 3.984375 1.734375 5.96875q1.75 1.984375 4.390625 1.984375q2.609375 0 4.34375 -1.984375q1.75 -2.0 1.75 -6.078125q0 -3.859375 -1.75 -5.828125q-1.75 -1.984375 -4.34375 -1.984375q-2.640625 0 -4.390625 1.96875q-1.734375 1.96875 -1.734375 5.953125zm19.949219 10.375l0 -20.75l3.140625 0l0 2.921875q0.984375 -1.53125 2.59375 -2.453125q1.625 -0.9375 3.703125 -0.9375q2.296875 0 3.765625 0.96875q1.484375 0.953125 2.09375 2.671875q2.453125 -3.640625 6.40625 -3.640625q3.078125 0 4.734375 1.71875q1.671875 1.703125 1.671875 5.265625l0 14.234375l-3.5 0l0 -13.0625q0 -2.109375 -0.34375 -3.03125q-0.34375 -0.9375 -1.25 -1.5q-0.890625 -0.578125 -2.09375 -0.578125q-2.1875 0 -3.640625 1.46875q-1.4375 1.453125 -1.4375 4.65625l0 12.046875l-3.515625 0l0 -13.484375q0 -2.34375 -0.859375 -3.515625q-0.859375 -1.171875 -2.8125 -1.171875q-1.484375 0 -2.75 0.78125q-1.265625 0.78125 -1.828125 2.296875q-0.5625 1.5 -0.5625 4.328125l0 10.765625l-3.515625 0zm54.73047 0l0 -6.859375l-12.421875 0l0 -3.21875l13.0625 -18.56253l2.875 0l0 18.56253l3.859375 0l0 3.21875l-3.859375 0l0 6.859375l-3.515625 0zm0 -10.078125l0 -12.90625l-8.96875 12.90625l8.96875 0z" fill-rule="nonzero"></path><path fill="#000000" fill-opacity="0.0" d="m29.267717 602.06036l263.37006 0l0 76.69293l-263.37006 0z" fill-rule="evenodd"></path><path fill="#000000" d="m41.40834 649.4604l0 -28.640625l12.703125 0q3.828125 0 5.8125 0.78125q2.0 0.765625 3.1875 2.71875q1.1875 1.953125 1.1875 4.3125q0 3.046875 -1.96875 5.140625q-1.96875 2.09375 -6.09375 2.65625q1.5 0.71875 2.28125 1.421875q1.671875 1.53125 3.15625 3.8125l4.96875 7.796875l-4.765625 0l-3.78125 -5.953125q-1.65625 -2.578125 -2.734375 -3.9375q-1.078125 -1.375 -1.9375 -1.921875q-0.84375 -0.546875 -1.71875 -0.765625q-0.640625 -0.140625 -2.109375 -0.140625l-4.390625 0l0 12.71875l-3.796875 0zm3.796875 -16.0l8.140625 0q2.59375 0 4.0625 -0.53125q1.46875 -0.546875 2.21875 -1.71875q0.765625 -1.1875 0.765625 -2.578125q0 -2.03125 -1.46875 -3.328125q-1.46875 -1.3125 -4.65625 -1.3125l-9.0625 0l0 9.46875zm23.277344 5.625q0 -5.765625 3.203125 -8.53125q2.671875 -2.3125 6.53125 -2.3125q4.265625 0 6.984375 2.8125q2.71875 2.796875 2.71875 7.734375q0 4.015625 -1.203125 6.3125q-1.203125 2.28125 -3.5 3.5625q-2.296875 1.265625 -5.0 1.265625q-4.359375 0 -7.046875 -2.796875q-2.6875 -2.796875 -2.6875 -8.046875zm3.609375 0q0 3.984375 1.734375 5.96875q1.75 1.984375 4.390625 1.984375q2.609375 0 4.34375 -1.984375q1.75 -2.0 1.75 -6.078125q0 -3.859375 -1.75 -5.828125q-1.75 -1.984375 -4.34375 -1.984375q-2.640625 0 -4.390625 1.96875q-1.734375 1.96875 -1.734375 5.953125zm18.636719 0q0 -5.765625 3.203125 -8.53125q2.671875 -2.3125 6.53125 -2.3125q4.265625 0 6.984375 2.8125q2.71875 2.796875 2.71875 7.734375q0 4.015625 -1.203125 6.3125q-1.203125 2.28125 -3.5 3.5625q-2.296875 1.265625 -5.0 1.265625q-4.359375 0 -7.046875 -2.796875q-2.6875 -2.796875 -2.6875 -8.046875zm3.609375 0q0 3.984375 1.734375 5.96875q1.75 1.984375 4.390625 1.984375q2.609375 0 4.34375 -1.984375q1.75 -2.0 1.75 -6.078125q0 -3.859375 -1.75 -5.828125q-1.75 -1.984375 -4.34375 -1.984375q-2.640625 0 -4.390625 1.96875q-1.734375 1.96875 -1.734375 5.953125zm19.949219 10.375l0 -20.75l3.140625 0l0 2.921875q0.984375 -1.53125 2.59375 -2.453125q1.625 -0.9375 3.703125 -0.9375q2.296875 0 3.765625 0.96875q1.484375 0.953125 2.09375 2.671875q2.453125 -3.640625 6.40625 -3.640625q3.078125 0 4.734375 1.71875q1.671875 1.703125 1.671875 5.265625l0 14.234375l-3.5 0l0 -13.0625q0 -2.109375 -0.34375 -3.03125q-0.34375 -0.9375 -1.25 -1.5q-0.890625 -0.578125 -2.09375 -0.578125q-2.1875 0 -3.640625 1.46875q-1.4375 1.453125 -1.4375 4.65625l0 12.046875l-3.515625 0l0 -13.484375q0 -2.34375 -0.859375 -3.515625q-0.859375 -1.171875 -2.8125 -1.171875q-1.484375 0 -2.75 0.78125q-1.265625 0.78125 -1.828125 2.296875q-0.5625 1.5 -0.5625 4.328125l0 10.765625l-3.515625 0zm43.44922 -7.5l3.703125 -0.3125q0.40625 2.6875 1.890625 4.046875q1.5 1.359375 3.609375 1.359375q2.546875 0 4.296875 -1.90625q1.765625 -1.921875 1.765625 -5.078125q0 -3.015625 -1.703125 -4.75q-1.6875 -1.734375 -4.421875 -1.734375q-1.6875 0 -3.0625 0.765625q-1.359375 0.765625 -2.140625 2.0l-3.3125 -0.421875l2.78125 -14.71875l14.234375 0l0 3.359375l-11.421875 0l-1.546875 7.703125q2.578125 -1.796875 5.40625 -1.796875q3.75 0 6.328125 2.59375q2.578125 2.59375 2.578125 6.6875q0 3.875 -2.265625 6.71875q-2.75 3.46875 -7.515625 3.46875q-3.90625 0 -6.375 -2.1875q-2.46875 -2.1875 -2.828125 -5.796875z" fill-rule="nonzero"></path><path fill="#000000" d="m347.51813 181.7128l13.917786 -13.917786l14.784546 14.784576l14.784576 -14.784576l13.917786 13.917786l-14.784576 14.784576l14.784576 14.784576l-13.917786 13.917786l-14.784576 -14.784576l-14.784546 14.784576l-13.917786 -13.917786l14.784546 -14.784576z" fill-rule="evenodd"></path><path stroke="#000000" stroke-width="1.0" stroke-linejoin="round" stroke-linecap="butt" d="m347.51813 181.7128l13.917786 -13.917786l14.784546 14.784576l14.784576 -14.784576l13.917786 13.917786l-14.784576 14.784576l14.784576 14.784576l-13.917786 13.917786l-14.784576 -14.784576l-14.784546 14.784576l-13.917786 -13.917786l14.784546 -14.784576z" fill-rule="evenodd"></path><path fill="#000000" d="m347.51813 293.7128l13.917786 -13.917786l14.784546 14.784576l14.784576 -14.784576l13.917786 13.917786l-14.784576 14.784576l14.784576 14.784576l-13.917786 13.917786l-14.784576 -14.784576l-14.784546 14.784576l-13.917786 -13.917786l14.784546 -14.784576z" fill-rule="evenodd"></path><path stroke="#000000" stroke-width="1.0" stroke-linejoin="round" stroke-linecap="butt" d="m347.51813 293.7128l13.917786 -13.917786l14.784546 14.784576l14.784576 -14.784576l13.917786 13.917786l-14.784576 14.784576l14.784576 14.784576l-13.917786 13.917786l-14.784576 -14.784576l-14.784546 14.784576l-13.917786 -13.917786l14.784546 -14.784576z" fill-rule="evenodd"></path><path fill="#000000" d="m481.51813 293.7128l13.917786 -13.917786l14.784546 14.784576l14.784607 -14.784576l13.917786 13.917786l-14.784607 14.784576l14.784607 14.784576l-13.917786 13.917786l-14.784607 -14.784576l-14.784546 14.784576l-13.917786 -13.917786l14.784546 -14.784576z" fill-rule="evenodd"></path><path stroke="#000000" stroke-width="1.0" stroke-linejoin="round" stroke-linecap="butt" d="m481.51813 293.7128l13.917786 -13.917786l14.784546 14.784576l14.784607 -14.784576l13.917786 13.917786l-14.784607 14.784576l14.784607 14.784576l-13.917786 13.917786l-14.784607 -14.784576l-14.784546 14.784576l-13.917786 -13.917786l14.784546 -14.784576z" fill-rule="evenodd"></path><path fill="#000000" d="m481.51813 397.7128l13.917786 -13.917786l14.784546 14.784576l14.784607 -14.784576l13.917786 13.917786l-14.784607 14.784576l14.784607 14.784576l-13.917786 13.917786l-14.784607 -14.784576l-14.784546 14.784576l-13.917786 -13.917786l14.784546 -14.784576z" fill-rule="evenodd"></path><path stroke="#000000" stroke-width="1.0" stroke-linejoin="round" stroke-linecap="butt" d="m481.51813 397.7128l13.917786 -13.917786l14.784546 14.784576l14.784607 -14.784576l13.917786 13.917786l-14.784607 14.784576l14.784607 14.784576l-13.917786 13.917786l-14.784607 -14.784576l-14.784546 14.784576l-13.917786 -13.917786l14.784546 -14.784576z" fill-rule="evenodd"></path><path fill="#000000" d="m481.51813 493.7128l13.917786 -13.917786l14.784546 14.784576l14.784607 -14.784576l13.917786 13.917786l-14.784607 14.784576l14.784607 14.784546l-13.917786 13.917786l-14.784607 -14.784546l-14.784546 14.784546l-13.917786 -13.917786l14.784546 -14.784546z" fill-rule="evenodd"></path><path stroke="#000000" stroke-width="1.0" stroke-linejoin="round" stroke-linecap="butt" d="m481.51813 493.7128l13.917786 -13.917786l14.784546 14.784576l14.784607 -14.784576l13.917786 13.917786l-14.784607 14.784576l14.784607 14.784546l-13.917786 13.917786l-14.784607 -14.784546l-14.784546 14.784546l-13.917786 -13.917786l14.784546 -14.784546z" fill-rule="evenodd"></path><path fill="#000000" d="m615.5181 181.7128l13.917786 -13.917786l14.784546 14.784576l14.784607 -14.784576l13.917786 13.917786l-14.784607 14.784576l14.784607 14.784576l-13.917786 13.917786l-14.784607 -14.784576l-14.784546 14.784576l-13.917786 -13.917786l14.784546 -14.784576z" fill-rule="evenodd"></path><path stroke="#000000" stroke-width="1.0" stroke-linejoin="round" stroke-linecap="butt" d="m615.5181 181.7128l13.917786 -13.917786l14.784546 14.784576l14.784607 -14.784576l13.917786 13.917786l-14.784607 14.784576l14.784607 14.784576l-13.917786 13.917786l-14.784607 -14.784576l-14.784546 14.784576l-13.917786 -13.917786l14.784546 -14.784576z" fill-rule="evenodd"></path><path fill="#000000" d="m615.5181 613.7128l13.917786 -13.917786l14.784546 14.784546l14.784607 -14.784546l13.917786 13.917786l-14.784607 14.784546l14.784607 14.784546l-13.917786 13.917786l-14.784607 -14.784546l-14.784546 14.784546l-13.917786 -13.917786l14.784546 -14.784546z" fill-rule="evenodd"></path><path stroke="#000000" stroke-width="1.0" stroke-linejoin="round" stroke-linecap="butt" d="m615.5181 613.7128l13.917786 -13.917786l14.784546 14.784546l14.784607 -14.784546l13.917786 13.917786l-14.784607 14.784546l14.784607 14.784546l-13.917786 13.917786l-14.784607 -14.784546l-14.784546 14.784546l-13.917786 -13.917786l14.784546 -14.784546z" fill-rule="evenodd"></path><path fill="#000000" d="m615.5181 493.7128l13.917786 -13.917786l14.784546 14.784576l14.784607 -14.784576l13.917786 13.917786l-14.784607 14.784576l14.784607 14.784546l-13.917786 13.917786l-14.784607 -14.784546l-14.784546 14.784546l-13.917786 -13.917786l14.784546 -14.784546z" fill-rule="evenodd"></path><path stroke="#000000" stroke-width="1.0" stroke-linejoin="round" stroke-linecap="butt" d="m615.5181 493.7128l13.917786 -13.917786l14.784546 14.784576l14.784607 -14.784576l13.917786 13.917786l-14.784607 14.784576l14.784607 14.784546l-13.917786 13.917786l-14.784607 -14.784546l-14.784546 14.784546l-13.917786 -13.917786l14.784546 -14.784546z" fill-rule="evenodd"></path></g></svg>

