<svg xmlns="http://www.w3.org/2000/svg" xmlns:xlink="http://www.w3.org/1999/xlink" width="1323.2" height="932.8"><g transform="translate(0 0)"><path d="M0 0h1323.2v932.8H0z" fill="#fff"/><path d="M220 152c3.2-16 20.8-32 40-32 24 0 40 16 40 44.8 0 43.2-56 62.4-80 115.2-24-52.8-80-72-80-115.2 0-28.8 16-44.8 40-44.8 19.2 0 36.8 16 40 32zM220 372c3.2-16 20.8-32 40-32 24 0 40 16 40 44.8 0 43.2-56 62.4-80 115.2-24-52.8-80-72-80-115.2 0-28.8 16-44.8 40-44.8 19.2 0 36.8 16 40 32zM220 592c3.2-16 20.8-32 40-32 24 0 40 16 40 44.8 0 43.2-56 62.4-80 115.2-24-52.8-80-72-80-115.2 0-28.8 16-44.8 40-44.8 19.2 0 36.8 16 40 32z" stroke="#000" stroke-width="5" fill="#fff"/><path d="M284.56 203.73h77.72V260H440" stroke="#000" stroke-width="5" fill="none"/><path d="M284.56 206.23h-3v-.6l2.44-2.78.56-.7zM440 260l-14.27 4.64v-9.28z"/><path d="M441.32 257.8L440 260l1.32 2.2-18.1 5.88v-16.16zm-13.1 3.4l3.7-1.2-3.7-1.2z"/><path d="M286.27 420h76.87v140H440" stroke="#000" stroke-width="5" fill="none"/><path d="M286.27 422.5h-2l2-2.5zM440 560l-14.27 4.64v-9.28z"/><path d="M441.32 557.8L440 560l1.32 2.2-18.1 5.88v-16.16zm-13.1 3.4l3.7-1.2-3.7-1.2z"/><path d="M286.27 640h76.87v-80H440" stroke="#000" stroke-width="5" fill="none"/><path d="M286.27 642.5h-2l2-2.5zM440 560l-14.27 4.64v-9.28z"/><path d="M441.32 557.8L440 560l1.32 2.2-18.1 5.88v-16.16zm-13.1 3.4l3.7-1.2-3.7-1.2z"/><path d="M920 673.88h144v146.4c-24-24.4-39-24.4-48-24.4-14.4 0-33.6 24.4-48 24.4-9 0-24 0-48-24.4z" stroke="#000" stroke-width="5" fill="#fff"/><path d="M928 686.8h144v146.4c-24-24.4-39-24.4-48-24.4-14.4 0-33.6 24.4-48 24.4-9 0-24 0-48-24.4z" stroke="#000" stroke-width="5" fill="#fff"/><path d="M936 699.72h144v146.4c-24-24.4-39-24.4-48-24.4-14.4 0-33.6 24.4-48 24.4-9 0-24 0-48-24.4z" stroke="#000" stroke-width="5" fill="#fff"/><use xlink:href="#a" transform="matrix(1,0,0,1,941,704.7176470588236) translate(2.3148148148148096 25.388888888888886)"/><use xlink:href="#b" transform="matrix(1,0,0,1,941,704.7176470588236) translate(11.691358024691354 62.72222222222223)"/><use xlink:href="#c" transform="matrix(1,0,0,1,941,704.7176470588236) translate(58.358024691358025 100.05555555555557)"/><path d="M920 513.88h144v146.4c-24-24.4-39-24.4-48-24.4-14.4 0-33.6 24.4-48 24.4-9 0-24 0-48-24.4z" stroke="#000" stroke-width="5" fill="#fff"/><path d="M928 526.8h144v146.4c-24-24.4-39-24.4-48-24.4-14.4 0-33.6 24.4-48 24.4-9 0-24 0-48-24.4z" stroke="#000" stroke-width="5" fill="#fff"/><path d="M936 539.72h144v146.4c-24-24.4-39-24.4-48-24.4-14.4 0-33.6 24.4-48 24.4-9 0-24 0-48-24.4z" stroke="#000" stroke-width="5" fill="#fff"/><use xlink:href="#a" transform="matrix(1,0,0,1,941,544.7176470588236) translate(2.3148148148148096 25.388888888888886)"/><use xlink:href="#b" transform="matrix(1,0,0,1,941,544.7176470588236) translate(11.691358024691354 62.72222222222223)"/><use xlink:href="#d" transform="matrix(1,0,0,1,941,544.7176470588236) translate(58.358024691358025 100.05555555555557)"/><path d="M720 120h160v120c-26.67-20-43.33-20-53.33-20-16 0-37.34 20-53.34 20-10 0-26.66 0-53.33-20z" stroke="#000" stroke-width="5" fill="#fff"/><use xlink:href="#e" transform="matrix(1,0,0,1,725,125) translate(8.84567901234567 51.22222222222222)"/><use xlink:href="#f" transform="matrix(1,0,0,1,725,125) translate(123.87037037037038 51.22222222222222)"/><path d="M720 260h160v120c-26.67-20-43.33-20-53.33-20-16 0-37.34 20-53.34 20-10 0-26.66 0-53.33-20z" stroke="#000" stroke-width="5" fill="#fff"/><use xlink:href="#e" transform="matrix(1,0,0,1,725,265) translate(8.84567901234567 51.22222222222222)"/><use xlink:href="#g" transform="matrix(1,0,0,1,725,265) translate(123.87037037037038 51.22222222222222)"/><path d="M720 420h160v120c-26.67-20-43.33-20-53.33-20-16 0-37.34 20-53.34 20-10 0-26.66 0-53.33-20z" stroke="#000" stroke-width="5" fill="#fff"/><use xlink:href="#e" transform="matrix(1,0,0,1,725,425) translate(8.84567901234567 51.22222222222222)"/><use xlink:href="#h" transform="matrix(1,0,0,1,725,425) translate(123.87037037037038 51.22222222222222)"/><path d="M476 200h108l36 60-36 60H476l-36-60z" stroke="#000" stroke-width="5" fill="#fff"/><use xlink:href="#i" transform="matrix(1,0,0,1,445,205) translate(20.358024691358025 61.22222222222222)"/><path d="M476 500h108l36 60-36 60H476l-36-60z" stroke="#000" stroke-width="5" fill="#fff"/><use xlink:href="#i" transform="matrix(1,0,0,1,445,505) translate(20.358024691358025 61.22222222222222)"/><path d="M620 260h50v-80h50" stroke="#000" stroke-width="5" fill="none"/><path d="M620 262.5h-1.5l1.5-2.5-1.5-2.5h1.5zM720 180l-14.27 4.64v-9.28z"/><path d="M720 177.37v5.26l-16.77 5.45v-16.16zm-11.77 3.82l3.68-1.2-3.67-1.2z"/><path d="M620 260h50v60h50" stroke="#000" stroke-width="5" fill="none"/><path d="M620 262.5h-1.5l1.5-2.5-1.5-2.5h1.5zM720 320l-14.27 4.64v-9.28z"/><path d="M720 317.37v5.26l-16.77 5.45v-16.16zm-11.77 3.82l3.68-1.2-3.67-1.2z"/><path d="M620 260h50v220h50" stroke="#000" stroke-width="5" fill="none"/><path d="M620 262.5h-1.5l1.5-2.5-1.5-2.5h1.5zM720 480l-14.27 4.64v-9.28z"/><path d="M720 477.37v5.26l-16.77 5.45v-16.16zm-11.77 3.82l3.68-1.2-3.67-1.2z"/><path d="M620 560h50V180h50" stroke="#000" stroke-width="5" fill="none"/><path d="M634.27 564.64L620 560l14.27-4.64z"/><path d="M636.77 568.08l-18.1-5.88L620 560l-1.32-2.2 18.1-5.88zM628.1 560l3.67 1.2v-2.4zM720 180l-14.27 4.64v-9.28z"/><path d="M720 177.37v5.26l-16.77 5.45v-16.16zm-11.77 3.82l3.68-1.2-3.67-1.2z"/><path d="M620 560h50v-80h50" stroke="#000" stroke-width="5" fill="none"/><path d="M634.27 564.64L620 560l14.27-4.64z"/><path d="M636.77 568.08l-18.1-5.88L620 560l-1.32-2.2 18.1-5.88zM628.1 560l3.67 1.2v-2.4zM720 480l-14.27 4.64v-9.28z"/><path d="M720 477.37v5.26l-16.77 5.45v-16.16zm-11.77 3.82l3.68-1.2-3.67-1.2z"/><path d="M620 560h50V320h50" stroke="#000" stroke-width="5" fill="none"/><path d="M634.27 564.64L620 560l14.27-4.64z"/><path d="M636.77 568.08l-18.1-5.88L620 560l-1.32-2.2 18.1-5.88zM628.1 560l3.67 1.2v-2.4zM720 320l-14.27 4.64v-9.28z"/><path d="M720 317.37v5.26l-16.77 5.45v-16.16zm-11.77 3.82l3.68-1.2-3.67-1.2z"/><path d="M620 260h50v338.56h249" stroke="#000" stroke-width="5" fill="none"/><path d="M634.27 264.64L620 260l14.27-4.64z"/><path d="M636.77 268.08l-18.1-5.88L620 260l-1.32-2.2 18.1-5.88zM628.1 260l3.67 1.2v-2.4zM919 598.56l-14.27 4.64v-9.27z"/><path d="M920 596.26v4.6l-17.77 5.78V590.5zm-12.77 3.5l3.68-1.2-3.67-1.2z"/><path d="M620 560h50v200h250" stroke="#000" stroke-width="5" fill="none"/><path d="M634.27 564.64L620 560l14.27-4.64z"/><path d="M636.77 568.08l-18.1-5.88L620 560l-1.32-2.2 18.1-5.88zM628.1 560l3.67 1.2v-2.4zM920 760l-14.27 4.64v-9.28z"/><path d="M920 757.37v5.26l-16.77 5.45v-16.16zm-11.77 3.82l3.68-1.2-3.67-1.2z"/><path d="M1180 188c0 6.63-26.86 12-60 12s-60-5.37-60-12V92c0-6.63 26.86-12 60-12s60 5.37 60 12z" stroke="#000" stroke-width="5" fill="#fff"/><path d="M1180 92c0 6.63-26.86 12-60 12s-60-5.37-60-12" stroke="#000" stroke-width="5" fill="none"/><use xlink:href="#j" transform="matrix(1,0,0,1,1065,109) translate(32.61728395061728 49.22222222222222)"/><path d="M880 180h90v-40h90" stroke="#000" stroke-width="5" fill="none"/><path d="M1060 140l-14.27 4.64v-9.28z"/><path d="M1060 137.37v5.26l-16.77 5.45v-16.16zm-11.77 3.82l3.68-1.2-3.67-1.2z"/><path d="M880 320h90V140h90" stroke="#000" stroke-width="5" fill="none"/><path d="M1060 140l-14.27 4.64v-9.28z"/><path d="M1060 137.37v5.26l-16.77 5.45v-16.16zm-11.77 3.82l3.68-1.2-3.67-1.2z"/><path d="M880 480h90V140h90" stroke="#000" stroke-width="5" fill="none"/><path d="M1060 140l-14.27 4.64v-9.28z"/><path d="M1060 137.37v5.26l-16.77 5.45v-16.16zm-11.77 3.82l3.68-1.2-3.67-1.2z"/><g><path d="M529.67 355l19.45 19.22-9.67.05.43 71.34 9.67-.05L530.33 465l-19.45-19.22 9.67-.05-.43-71.34-9.67.05z" stroke="#000" stroke-width="5" fill="#090"/></g><defs><path d="M182-130c37 4 62 22 62 59C244 23 116-4 24 0v-248c84 5 203-23 205 63 0 31-19 50-47 55zM76-148c40-3 101 13 101-30 0-44-60-28-101-31v61zm0 110c48-3 116 14 116-37 0-48-69-32-116-35v72" id="k"/><path d="M133-34C117-15 103 5 69 4 32 3 11-16 11-54c-1-60 55-63 116-61 1-26-3-47-28-47-18 1-26 9-28 27l-52-2c7-38 36-58 82-57s74 22 75 68l1 82c-1 14 12 18 25 15v27c-30 8-71 5-69-32zm-48 3c29 0 43-24 42-57-32 0-66-3-65 30 0 17 8 27 23 27" id="l"/><path d="M190-63c-7 42-38 67-86 67-59 0-84-38-90-98-12-110 154-137 174-36l-49 2c-2-19-15-32-35-32-30 0-35 28-38 64-6 74 65 87 74 30" id="m"/><path d="M147 0L96-86 75-71V0H25v-261h50v150l67-79h53l-66 74L201 0h-54" id="n"/><path d="M185-48c-13 30-37 53-82 52C43 2 14-33 14-96s30-98 90-98c62 0 83 45 84 108H66c0 31 8 55 39 56 18 0 30-7 34-22zm-45-69c5-46-57-63-70-21-2 6-4 13-4 21h74" id="o"/><path d="M135-194c87-1 58 113 63 194h-50c-7-57 23-157-34-157-59 0-34 97-39 157H25l-1-190h47c2 12-1 28 3 38 12-26 28-41 61-42" id="p"/><path d="M88-194c31-1 46 15 58 34l-1-101h50l1 261h-48c-2-10 0-23-3-31C134-8 116 4 84 4 32 4 16-41 15-95c0-56 19-97 73-99zm17 164c33 0 40-30 41-66 1-37-9-64-41-64s-38 30-39 65c0 43 13 65 39 65" id="q"/><g id="a"><use transform="matrix(0.08641975308641976,0,0,0.08641975308641976,0,0)" xlink:href="#k"/><use transform="matrix(0.08641975308641976,0,0,0.08641975308641976,22.38271604938272,0)" xlink:href="#l"/><use transform="matrix(0.08641975308641976,0,0,0.08641975308641976,39.66666666666667,0)" xlink:href="#m"/><use transform="matrix(0.08641975308641976,0,0,0.08641975308641976,56.95061728395062,0)" xlink:href="#n"/><use transform="matrix(0.08641975308641976,0,0,0.08641975308641976,74.23456790123457,0)" xlink:href="#o"/><use transform="matrix(0.08641975308641976,0,0,0.08641975308641976,91.51851851851853,0)" xlink:href="#p"/><use transform="matrix(0.08641975308641976,0,0,0.08641975308641976,110.44444444444444,0)" xlink:href="#q"/></g><path d="M169-182c-1-43-94-46-97-3 18 66 151 10 154 114 3 95-165 93-204 36-6-8-10-19-12-30l50-8c3 46 112 56 116 5-17-69-150-10-154-114-4-87 153-88 188-35 5 8 8 18 10 28" id="r"/><path d="M135-150c-39-12-60 13-60 57V0H25l-1-190h47c2 13-1 29 3 40 6-28 27-53 61-41v41" id="s"/><path d="M128 0H69L1-190h53L99-40l48-150h52" id="t"/><path d="M25-224v-37h50v37H25zM25 0v-190h50V0H25" id="u"/><g id="b"><use transform="matrix(0.08641975308641976,0,0,0.08641975308641976,0,0)" xlink:href="#r"/><use transform="matrix(0.08641975308641976,0,0,0.08641975308641976,20.740740740740744,0)" xlink:href="#o"/><use transform="matrix(0.08641975308641976,0,0,0.08641975308641976,38.0246913580247,0)" xlink:href="#s"/><use transform="matrix(0.08641975308641976,0,0,0.08641975308641976,50.12345679012346,0)" xlink:href="#t"/><use transform="matrix(0.08641975308641976,0,0,0.08641975308641976,67.40740740740742,0)" xlink:href="#u"/><use transform="matrix(0.08641975308641976,0,0,0.08641975308641976,76.0493827160494,0)" xlink:href="#m"/><use transform="matrix(0.08641975308641976,0,0,0.08641975308641976,93.33333333333334,0)" xlink:href="#o"/></g><path d="M128-127c34 4 56 21 59 58 7 91-148 94-172 28-4-9-6-17-7-26l51-5c1 24 16 35 40 36 23 0 39-12 38-36-1-31-31-36-65-34v-40c32 2 59-3 59-33 0-20-13-33-34-33s-33 13-35 32l-50-3c6-44 37-68 86-68 50 0 83 20 83 66 0 35-22 52-53 58" id="v"/><use transform="matrix(0.08641975308641976,0,0,0.08641975308641976,0,0)" xlink:href="#v" id="c"/><path d="M182-182c0 78-84 86-111 141h115V0H12c-6-101 99-100 120-180 1-22-12-31-33-32-23 0-32 14-35 34l-49-3c5-45 32-70 84-70 51 0 83 22 83 69" id="w"/><use transform="matrix(0.08641975308641976,0,0,0.08641975308641976,0,0)" xlink:href="#w" id="d"/><path d="M275 0h-61l-44-196L126 0H64L0-248h53L97-49l45-199h58l43 199 44-199h52" id="x"/><path d="M110-194c64 0 96 36 96 99 0 64-35 99-97 99-61 0-95-36-95-99 0-62 34-99 96-99zm-1 164c35 0 45-28 45-65 0-40-10-65-43-65-34 0-45 26-45 65 0 36 10 65 43 65" id="y"/><g id="e"><use transform="matrix(0.08641975308641976,0,0,0.08641975308641976,0,0)" xlink:href="#x"/><use transform="matrix(0.08641975308641976,0,0,0.08641975308641976,28.69135802469136,0)" xlink:href="#y"/><use transform="matrix(0.08641975308641976,0,0,0.08641975308641976,47.61728395061729,0)" xlink:href="#s"/><use transform="matrix(0.08641975308641976,0,0,0.08641975308641976,59.71604938271606,0)" xlink:href="#n"/><use transform="matrix(0.08641975308641976,0,0,0.08641975308641976,77.00000000000001,0)" xlink:href="#o"/><use transform="matrix(0.08641975308641976,0,0,0.08641975308641976,94.28395061728396,0)" xlink:href="#s"/></g><path d="M23 0v-37h61v-169l-59 37v-38l62-41h46v211h57V0H23" id="z"/><use transform="matrix(0.08641975308641976,0,0,0.08641975308641976,0,0)" xlink:href="#z" id="f"/><use transform="matrix(0.08641975308641976,0,0,0.08641975308641976,0,0)" xlink:href="#w" id="g"/><use transform="matrix(0.08641975308641976,0,0,0.08641975308641976,0,0)" xlink:href="#v" id="h"/><path d="M231 0h-52l-39-155L100 0H48L-1-190h46L77-45c9-52 24-97 36-145h53l37 145 32-145h46" id="A"/><g id="i"><use transform="matrix(0.08641975308641976,0,0,0.08641975308641976,0,0)" xlink:href="#r"/><use transform="matrix(0.08641975308641976,0,0,0.08641975308641976,20.740740740740744,0)" xlink:href="#A"/><use transform="matrix(0.08641975308641976,0,0,0.08641975308641976,44.93827160493828,0)" xlink:href="#u"/><use transform="matrix(0.08641975308641976,0,0,0.08641975308641976,53.580246913580254,0)" xlink:href="#p"/><use transform="matrix(0.08641975308641976,0,0,0.08641975308641976,72.50617283950618,0)" xlink:href="#q"/><use transform="matrix(0.08641975308641976,0,0,0.08641975308641976,91.4320987654321,0)" xlink:href="#y"/><use transform="matrix(0.08641975308641976,0,0,0.08641975308641976,110.35802469135801,0)" xlink:href="#p"/></g><path d="M24-248c120-7 223 5 221 122C244-46 201 0 124 0H24v-248zM76-40c74 7 117-18 117-86 0-67-45-88-117-82v168" id="B"/><g id="j"><use transform="matrix(0.08641975308641976,0,0,0.08641975308641976,0,0)" xlink:href="#B"/><use transform="matrix(0.08641975308641976,0,0,0.08641975308641976,22.38271604938272,0)" xlink:href="#k"/></g></defs></g></svg>